<svg xmlns="http://www.w3.org/2000/svg" height="512pt" viewBox="0 0 512 512" width="512pt"><ellipse cx="251.746" cy="252.559" rx="254.915" ry="252.746" fill="orange" fill-rule="evenodd"/><path d="M252.025 511.144c-68.378 0-132.668-26.629-181.02-74.98-48.35-48.352-74.98-112.641-74.98-181.02s26.63-132.668 74.98-181.02c48.352-48.351 112.642-74.98 181.02-74.98 68.38 0 132.668 26.629 181.02 74.98 48.352 48.352 74.98 112.641 74.98 181.02s-26.628 132.668-74.98 181.02c-48.352 48.351-112.64 74.98-181.02 74.98zm0-472c-119.101 0-216 96.899-216 216 0 119.102 96.899 216 216 216 119.102 0 216-96.898 216-216 0-119.101-96.898-216-216-216zm104.286 216L218.025 116.86l-28.285 28.285 110 110-110 110 28.285 28.285zm0 0" fill="#fff" stroke="#fff"/></svg>