<svg xmlns="http://www.w3.org/2000/svg" viewBox="0 0 34 34"><path d="M15.809 22.656l-8.534-.039-.087-.395c-.24-1.088-.562-1.8-1.076-2.384-2.113-2.4-5.498-2.576-7.646-.396-.816.828-1.425 2.035-1.425 2.823 0 .324-.055.354-.648.354-.99 0-1.225-.315-1.225-1.647 0-1.315.15-1.732.835-2.324l.534-.461.072-3.078c.105-4.472.111-4.48 3.678-4.591 2.213-.069 2.35-.09 2.9-.455.362-.239.913-.886 1.473-1.727.492-.74 1.038-1.424 1.212-1.521.208-.116 1.029-.179 2.37-.182l2.054-.005v-.715c0-.833.205-1.014 1.152-1.014s1.153.181 1.153 1.014v.715h.636c1.504 0 1.525.067 1.525 5.027 0 4.004.002 4.035.32 4.257.176.124.435.224.576.224.24 0 .256-.315.256-5.265V5.606l.354-.353c.495-.496 1.137-.47 1.674.067l.421.421v4.122c0 3.884.015 4.114.252 3.982.405-.225 4.743-3.97 6.153-5.311 2.907-2.767 8.374-7.43 9.109-7.768.694-.321.781-.33 1.249-.135.899.375 1.056 1.206.453 2.395-.35.692-.36.793-.36 3.768 0 2.965.01 3.067.322 3.4.312.332.314.354.072.777-.152.264-.25.738-.25 1.206 0 .97-.172 1.428-.655 1.744-.36.236-.404.236-.845 0-.482-.26-.949-.9-.949-1.3 0-.313.103-.291.603.13.235.198.518.36.628.36.482 0 .682-1.4.277-1.936-.27-.359-.269-.718.005-.945.178-.148.216-.658.216-2.9 0-1.495-.049-2.715-.108-2.71-.118.008-7.528 11.102-7.528 11.27 0 .056 2.496.102 5.547.102h5.547v5.858l-.365.343c-.285.268-.565.355-1.281.4l-.917.06-.163-.76c-.359-1.673-1.614-3.165-3.152-3.745-1.211-.457-2.786-.354-4.081.267-1.484.711-2.35 1.829-2.725 3.521-.179.803-.198.828-.63.794-.244-.02-4.285-.052-8.978-.073zm-2.986-12.204c.295-.295.354-.493.354-1.2 0-1.3-.203-1.429-2.46-1.554-.997-.056-2.197-.055-2.666.002-.819.098-.889.14-1.753 1.058-.953 1.013-1.154 1.598-.649 1.892.15.088 1.575.149 3.537.152l3.284.004z" fill="none"/><path d="M15.809 22.656l-8.534-.039-.087-.395c-.24-1.088-.562-1.8-1.076-2.384-2.113-2.4-5.498-2.576-7.646-.396-.816.828-1.425 2.035-1.425 2.823 0 .324-.055.354-.648.354-.99 0-1.225-.315-1.225-1.647 0-1.315.15-1.732.835-2.324l.534-.461.072-3.078c.105-4.472.111-4.48 3.678-4.591 2.213-.069 2.35-.09 2.9-.455.362-.239.913-.886 1.473-1.727.492-.74 1.038-1.424 1.212-1.521.208-.116 1.029-.179 2.37-.182l2.054-.005v-.715c0-.833.205-1.014 1.152-1.014s1.153.181 1.153 1.014v.715h.636c1.504 0 1.525.067 1.525 5.027 0 4.004.002 4.035.32 4.257.176.124.435.224.576.224.24 0 .256-.315.256-5.265V5.606l.354-.353c.495-.496 1.137-.47 1.674.067l.421.421v4.122c0 3.884.015 4.114.252 3.982.405-.225 4.743-3.97 6.153-5.311 2.907-2.767 8.374-7.43 9.109-7.768.694-.321.781-.33 1.249-.135.899.375 1.056 1.206.453 2.395-.35.692-.36.793-.36 3.768 0 2.965.01 3.067.322 3.4.312.332.314.354.072.777-.152.264-.25.738-.25 1.206 0 .97-.172 1.428-.655 1.744-.36.236-.404.236-.845 0-.482-.26-.949-.9-.949-1.3 0-.313.103-.291.603.13.235.198.518.36.628.36.482 0 .682-1.4.277-1.936-.27-.359-.269-.718.005-.945.178-.148.216-.658.216-2.9 0-1.495-.049-2.715-.108-2.71-.118.008-7.528 11.102-7.528 11.27 0 .056 2.496.102 5.547.102h5.547v5.858l-.365.343c-.285.268-.565.355-1.281.4l-.917.06-.163-.76c-.359-1.673-1.614-3.165-3.152-3.745-1.211-.457-2.786-.354-4.081.267-1.484.711-2.35 1.829-2.725 3.521-.179.803-.198.828-.63.794-.244-.02-4.285-.052-8.978-.073zm-2.986-12.204c.295-.295.354-.493.354-1.2 0-1.3-.203-1.429-2.46-1.554-.997-.056-2.197-.055-2.666.002-.819.098-.889.14-1.753 1.058-.953 1.013-1.154 1.598-.649 1.892.15.088 1.575.149 3.537.152l3.284.004z" fill="none"/><path d="M15.809 22.656l-8.534-.039-.087-.395c-.24-1.088-.562-1.8-1.076-2.384-2.113-2.4-5.498-2.576-7.646-.396-.816.828-1.425 2.035-1.425 2.823 0 .324-.055.354-.648.354-.99 0-1.225-.315-1.225-1.647 0-1.315.15-1.732.835-2.324l.534-.461.072-3.078c.105-4.472.111-4.48 3.678-4.591 2.213-.069 2.35-.09 2.9-.455.362-.239.913-.886 1.473-1.727.492-.74 1.038-1.424 1.212-1.521.208-.116 1.029-.179 2.37-.182l2.054-.005v-.715c0-.833.205-1.014 1.152-1.014s1.153.181 1.153 1.014v.715h.636c1.504 0 1.525.067 1.525 5.027 0 4.004.002 4.035.32 4.257.176.124.435.224.576.224.24 0 .256-.315.256-5.265V5.606l.354-.353c.495-.496 1.137-.47 1.674.067l.421.421v4.122c0 3.884.015 4.114.252 3.982.405-.225 4.743-3.97 6.153-5.311 2.907-2.767 8.374-7.43 9.109-7.768.694-.321.781-.33 1.249-.135.899.375 1.056 1.206.453 2.395-.35.692-.36.793-.36 3.768 0 2.965.01 3.067.322 3.4.312.332.314.354.072.777-.152.264-.25.738-.25 1.206 0 .97-.172 1.428-.655 1.744-.36.236-.404.236-.845 0-.482-.26-.949-.9-.949-1.3 0-.313.103-.291.603.13.235.198.518.36.628.36.482 0 .682-1.4.277-1.936-.27-.359-.269-.718.005-.945.178-.148.216-.658.216-2.9 0-1.495-.049-2.715-.108-2.71-.118.008-7.528 11.102-7.528 11.27 0 .056 2.496.102 5.547.102h5.547v5.858l-.365.343c-.285.268-.565.355-1.281.4l-.917.06-.163-.76c-.359-1.673-1.614-3.165-3.152-3.745-1.211-.457-2.786-.354-4.081.267-1.484.711-2.35 1.829-2.725 3.521-.179.803-.198.828-.63.794-.244-.02-4.285-.052-8.978-.073zm-2.986-12.204c.295-.295.354-.493.354-1.2 0-1.3-.203-1.429-2.46-1.554-.997-.056-2.197-.055-2.666.002-.819.098-.889.14-1.753 1.058-.953 1.013-1.154 1.598-.649 1.892.15.088 1.575.149 3.537.152l3.284.004z" fill="none"/><path d="M15.809 22.656l-8.534-.039-.087-.395c-.24-1.088-.562-1.8-1.076-2.384-2.113-2.4-5.498-2.576-7.646-.396-.816.828-1.425 2.035-1.425 2.823 0 .324-.055.354-.648.354-.99 0-1.225-.315-1.225-1.647 0-1.315.15-1.732.835-2.324l.534-.461.072-3.078c.105-4.472.111-4.48 3.678-4.591 2.213-.069 2.35-.09 2.9-.455.362-.239.913-.886 1.473-1.727.492-.74 1.038-1.424 1.212-1.521.208-.116 1.029-.179 2.37-.182l2.054-.005v-.715c0-.833.205-1.014 1.152-1.014s1.153.181 1.153 1.014v.715h.636c1.504 0 1.525.067 1.525 5.027 0 4.004.002 4.035.32 4.257.176.124.435.224.576.224.24 0 .256-.315.256-5.265V5.606l.354-.353c.495-.496 1.137-.47 1.674.067l.421.421v4.122c0 3.884.015 4.114.252 3.982.405-.225 4.743-3.97 6.153-5.311 2.907-2.767 8.374-7.43 9.109-7.768.694-.321.781-.33 1.249-.135.899.375 1.056 1.206.453 2.395-.35.692-.36.793-.36 3.768 0 2.965.01 3.067.322 3.4.312.332.314.354.072.777-.152.264-.25.738-.25 1.206 0 .97-.172 1.428-.655 1.744-.36.236-.404.236-.845 0-.482-.26-.949-.9-.949-1.3 0-.313.103-.291.603.13.235.198.518.36.628.36.482 0 .682-1.4.277-1.936-.27-.359-.269-.718.005-.945.178-.148.216-.658.216-2.9 0-1.495-.049-2.715-.108-2.71-.118.008-7.528 11.102-7.528 11.27 0 .056 2.496.102 5.547.102h5.547v5.858l-.365.343c-.285.268-.565.355-1.281.4l-.917.06-.163-.76c-.359-1.673-1.614-3.165-3.152-3.745-1.211-.457-2.786-.354-4.081.267-1.484.711-2.35 1.829-2.725 3.521-.179.803-.198.828-.63.794-.244-.02-4.285-.052-8.978-.073zm-2.986-12.204c.295-.295.354-.493.354-1.2 0-1.3-.203-1.429-2.46-1.554-.997-.056-2.197-.055-2.666.002-.819.098-.889.14-1.753 1.058-.953 1.013-1.154 1.598-.649 1.892.15.088 1.575.149 3.537.152l3.284.004z" fill="none"/><path d="M15.809 22.656l-8.534-.039-.087-.395c-.24-1.088-.562-1.8-1.076-2.384-2.113-2.4-5.498-2.576-7.646-.396-.816.828-1.425 2.035-1.425 2.823 0 .324-.055.354-.648.354-.99 0-1.225-.315-1.225-1.647 0-1.315.15-1.732.835-2.324l.534-.461.072-3.078c.105-4.472.111-4.48 3.678-4.591 2.213-.069 2.35-.09 2.9-.455.362-.239.913-.886 1.473-1.727.492-.74 1.038-1.424 1.212-1.521.208-.116 1.029-.179 2.37-.182l2.054-.005v-.715c0-.833.205-1.014 1.152-1.014s1.153.181 1.153 1.014v.715h.636c1.504 0 1.525.067 1.525 5.027 0 4.004.002 4.035.32 4.257.176.124.435.224.576.224.24 0 .256-.315.256-5.265V5.606l.354-.353c.495-.496 1.137-.47 1.674.067l.421.421v4.122c0 3.884.015 4.114.252 3.982.405-.225 4.743-3.97 6.153-5.311 2.907-2.767 8.374-7.43 9.109-7.768.694-.321.781-.33 1.249-.135.899.375 1.056 1.206.453 2.395-.35.692-.36.793-.36 3.768 0 2.965.01 3.067.322 3.4.312.332.314.354.072.777-.152.264-.25.738-.25 1.206 0 .97-.172 1.428-.655 1.744-.36.236-.404.236-.845 0-.482-.26-.949-.9-.949-1.3 0-.313.103-.291.603.13.235.198.518.36.628.36.482 0 .682-1.4.277-1.936-.27-.359-.269-.718.005-.945.178-.148.216-.658.216-2.9 0-1.495-.049-2.715-.108-2.71-.118.008-7.528 11.102-7.528 11.27 0 .056 2.496.102 5.547.102h5.547v5.858l-.365.343c-.285.268-.565.355-1.281.4l-.917.06-.163-.76c-.359-1.673-1.614-3.165-3.152-3.745-1.211-.457-2.786-.354-4.081.267-1.484.711-2.35 1.829-2.725 3.521-.179.803-.198.828-.63.794-.244-.02-4.285-.052-8.978-.073zm-2.986-12.204c.295-.295.354-.493.354-1.2 0-1.3-.203-1.429-2.46-1.554-.997-.056-2.197-.055-2.666.002-.819.098-.889.14-1.753 1.058-.953 1.013-1.154 1.598-.649 1.892.15.088 1.575.149 3.537.152l3.284.004z" fill="none"/><path d="M15.809 22.656l-8.534-.039-.087-.395c-.24-1.088-.562-1.8-1.076-2.384-2.113-2.4-5.498-2.576-7.646-.396-.816.828-1.425 2.035-1.425 2.823 0 .324-.055.354-.648.354-.99 0-1.225-.315-1.225-1.647 0-1.315.15-1.732.835-2.324l.534-.461.072-3.078c.105-4.472.111-4.48 3.678-4.591 2.213-.069 2.35-.09 2.9-.455.362-.239.913-.886 1.473-1.727.492-.74 1.038-1.424 1.212-1.521.208-.116 1.029-.179 2.37-.182l2.054-.005v-.715c0-.833.205-1.014 1.152-1.014s1.153.181 1.153 1.014v.715h.636c1.504 0 1.525.067 1.525 5.027 0 4.004.002 4.035.32 4.257.176.124.435.224.576.224.24 0 .256-.315.256-5.265V5.606l.354-.353c.495-.496 1.137-.47 1.674.067l.421.421v4.122c0 3.884.015 4.114.252 3.982.405-.225 4.743-3.97 6.153-5.311 2.907-2.767 8.374-7.43 9.109-7.768.694-.321.781-.33 1.249-.135.899.375 1.056 1.206.453 2.395-.35.692-.36.793-.36 3.768 0 2.965.01 3.067.322 3.4.312.332.314.354.072.777-.152.264-.25.738-.25 1.206 0 .97-.172 1.428-.655 1.744-.36.236-.404.236-.845 0-.482-.26-.949-.9-.949-1.3 0-.313.103-.291.603.13.235.198.518.36.628.36.482 0 .682-1.4.277-1.936-.27-.359-.269-.718.005-.945.178-.148.216-.658.216-2.9 0-1.495-.049-2.715-.108-2.71-.118.008-7.528 11.102-7.528 11.27 0 .056 2.496.102 5.547.102h5.547v5.858l-.365.343c-.285.268-.565.355-1.281.4l-.917.06-.163-.76c-.359-1.673-1.614-3.165-3.152-3.745-1.211-.457-2.786-.354-4.081.267-1.484.711-2.35 1.829-2.725 3.521-.179.803-.198.828-.63.794-.244-.02-4.285-.052-8.978-.073zm-2.986-12.204c.295-.295.354-.493.354-1.2 0-1.3-.203-1.429-2.46-1.554-.997-.056-2.197-.055-2.666.002-.819.098-.889.14-1.753 1.058-.953 1.013-1.154 1.598-.649 1.892.15.088 1.575.149 3.537.152l3.284.004z" fill="none"/><path d="M29.85 26.646c-1.26-.31-2.295-1.102-2.882-2.206-.247-.467-.314-.83-.308-1.676.01-1.302.388-2.209 1.305-3.127 1.467-1.468 4.007-1.296 5.572.377.77.823 1.027 1.518 1.019 2.75-.018 2.442-2.437 4.439-4.705 3.882zm1.29-2.02c1.385-.524 1.7-2.296.592-3.33-.366-.343-.556-.405-1.227-.405-.73 0-.84.045-1.354.559-.482.483-.559.647-.559 1.203 0 .792.449 1.52 1.156 1.875.581.292.834.31 1.392.099z" fill="none"/><path d="M28.297 1.15c.367-.382.734-.765 1.193-.892.459-.127 1.01.255 1.101.892.184.764-.092 1.529-.367 2.166-.092.127-.092.382-.092.637v5.733c.092.254.367.382.367.637.092.382-.091.637-.275.891 0 .765.092 1.53-.184 2.294-.183.382-.55.637-.826.51-.459-.256-.826-.893-.917-1.53 0-.127.091-.382.183-.382s.184.255.275.255c.092.255.276.51.551.51.184 0 .276-.255.276-.51v-1.02c-.092-.254-.276-.381-.276-.636-.092-.382.092-.637.276-.892v-5.35c-.46.891-.827 1.783-1.285 2.675-.826 1.783-1.744 3.567-2.57 5.35-.551 1.147-1.102 2.166-1.56 3.313h8.076v5.478c0 .637-.367 1.147-.826 1.274h-1.193c-.092-1.401-.55-2.675-1.285-3.567-.918-1.147-2.294-1.529-3.488-.892-1.193.51-2.11 1.784-2.386 3.44-.092.382-.092.764-.183 1.146-.276.128-.551 0-.918 0h-11.84c-.092 0-.275 0-.367-.127-.092-1.147-.367-2.293-1.01-3.058-.734-1.019-1.744-1.656-2.753-1.656-.734.128-1.469.382-2.02.892-.917.892-1.468 2.293-1.56 3.822-.275.127-.55.127-.917 0-.276 0-.46-.382-.46-.764v-1.402c0-.51 0-1.019.184-1.401.184-.255.46-.51.643-.765.091-.254.183-.51.183-.764v-4.204c0-.51 0-.892.092-1.402.184-.891.734-1.528 1.377-1.528h2.202c.643 0 1.285-.383 1.653-1.147.275-.51.55-1.02.826-1.656.183-.382.275-.765.55-.892.276-.255.643-.255 1.01-.255h2.203V5.227c0-.255.183-.51.367-.51h1.01c.183 0 .366.255.366.51v1.146c.368 0 .735-.127 1.102.128.275.254.459.637.459 1.146v7.39c0 .254 0 .509.183.636.184.255.367.255.55.255v-9.81c0-.382.093-.891.276-1.146.367-.51 1.102-.382 1.469.255.275.51.183 1.146.183 1.783v6.752c1.194-1.274 2.295-2.675 3.488-4.076 2.386-3.185 4.68-5.86 6.884-8.536M10.124 7.647c-.55.128-.918.765-1.193 1.402-.184.254-.46.51-.46 1.019 0 .382.276.51.552.51h4.496c.368-.128.552-.638.552-1.147 0-.51.091-1.02-.184-1.402-.275-.51-.734-.382-1.101-.382a9.31 9.31 0 00-2.662 0m16.704 10.83a3.096 3.096 0 012.02 1.273c.55.765.825 1.784.825 2.93a5.021 5.021 0 01-.918 2.93c-.55.765-1.468 1.275-2.202 1.147-1.01-.127-1.928-.892-2.387-2.038-.642-1.402-.458-3.44.276-4.714.459-1.02 1.468-1.656 2.386-1.529m-.55 2.42c-.368.128-.643.51-.827.893-.367.891-.091 2.038.551 2.548.459.382 1.01.382 1.377 0 .55-.383.734-1.402.55-2.166a2.065 2.065 0 00-.642-1.147c-.275-.255-.642-.255-1.01-.127M5.535 18.604c.734-.255 1.652 0 2.294.637.735.637 1.194 1.656 1.377 2.93 0 .51 0 1.146-.092 1.656-.275 1.274-1.01 2.42-1.927 2.803-.734.382-1.652.255-2.386-.255-.826-.637-1.377-1.656-1.56-2.93-.092-.51 0-1.02 0-1.402.183-1.656 1.1-3.057 2.294-3.44m.275 2.294c-.55.127-1.01.892-1.01 1.783 0 .637.276 1.274.643 1.657.367.254.826.382 1.193.127.46-.127.735-.637.826-1.274.184-.764-.091-1.784-.642-2.166-.275-.255-.643-.255-1.01-.127z" fill="#1bb1b5"/><text transform="scale(.6401 1.56224)" y="21.456" x=".028" style="line-height:1.25;-inkscape-font-specification:'sans-serif, Bold';font-variant-ligatures:normal;font-variant-caps:normal;font-variant-numeric:normal;font-feature-settings:normal;text-align:start" font-weight="700" font-size="5.199" font-family="sans-serif" letter-spacing="0" word-spacing="0" stroke-width=".13"><tspan style="-inkscape-font-specification:'sans-serif, Bold';font-variant-ligatures:normal;font-variant-caps:normal;font-variant-numeric:normal;font-feature-settings:normal;text-align:start" y="21.456" x=".028">Šlep Služba Srbije</tspan></text><path d="M26.179 26.598c-.914-.31-1.664-1.107-2.088-2.218-.18-.469-.228-.835-.224-1.686.007-1.308.282-2.22.946-3.143 1.063-1.476 2.903-1.304 4.036.378.558.828.744 1.527.738 2.765-.013 2.457-1.765 4.464-3.408 3.904zm.934-2.03c1.003-.528 1.231-2.31.429-3.35-.266-.344-.403-.407-.89-.407-.528 0-.607.045-.98.563-.35.485-.405.65-.405 1.21 0 .796.325 1.528.837 1.885.422.294.604.312 1.009.099zM5.165 26.516c-.602-.295-1.252-1.114-1.582-1.99-.398-1.06-.4-2.6-.005-3.642 1.176-3.097 4.2-2.985 5.319.196.697 1.985-.14 4.725-1.664 5.446-.585.276-1.496.272-2.068-.01zm1.655-2.069c.859-.454.95-2.66.14-3.397-.33-.3-1.121-.31-1.526-.02-.66.474-.847 1.831-.387 2.797.392.82.995 1.032 1.773.62z" fill="#fd0e35" fill-rule="evenodd"/></svg>