<svg xmlns="http://www.w3.org/2000/svg" width="14" height="22"><g fill="#e21c3f" fill-rule="evenodd" clip-rule="evenodd"><path d="M12.748 20.416c-1.006.745-2.147 1.009-3.267 1.375-1.319.434-2.163-.133-3.061-.969C3.06 17.697 1.312 13.756.457 9.341.009 7.023-.02 4.691.206 2.351c.024-.229.144-.497.308-.656C1.382.855 2.444.424 3.643.366c.173-.008.485.204.52.361.434 1.97.824 3.948 1.242 6.002-.431-.059-.781-.11-1.131-.152-.522-.062-.756.164-.596.647.979 2.942 1.973 5.877 2.979 8.811.078.229.262.422.44.703l1.325-1.161 4.326 4.839z"/><path d="M8.626 15.263c.404-.241.71-.498 1.062-.606.191-.059.537.068.683.229 1.129 1.252 2.229 2.53 3.332 3.806.443.512.217 1.234-.453 1.396-.137.032-.366-.079-.473-.196-1.346-1.483-2.675-2.978-4.151-4.629zM4.411.288c.975-.439 1.395-.263 1.618.69.35 1.494.692 2.991 1.022 4.49.124.561-.117.896-.644.996-.521.099-.76-.111-.86-.629-.362-1.854-.756-3.702-1.136-5.547z"/></g></svg>