<?xml version="1.0" encoding="utf-8"?>
<!-- Generator: Adobe Illustrator 16.0.0, SVG Export Plug-In . SVG Version: 6.00 Build 0)  -->
<!DOCTYPE svg PUBLIC "-//W3C//DTD SVG 1.1//EN" "http://www.w3.org/Graphics/SVG/1.1/DTD/svg11.dtd">
<svg version="1.1" id="Layer_1" xmlns="http://www.w3.org/2000/svg" xmlns:xlink="http://www.w3.org/1999/xlink" x="0px" y="0px"
	 width="32px" height="32px" viewBox="0 0 32 32" enable-background="new 0 0 32 32" xml:space="preserve">
<g>
	<g>
		<g>
			<path fill="#4A94D0" d="M30.604,14.965c0-5.91-2.639-12.03-11.271-12.622c-0.179-0.012-0.344,0.14-0.357,0.341
				c-0.017,0.202,0.125,0.377,0.312,0.389c4.425,0.318,5.98,5.987,5.98,11.709c0,1.115-0.157,1.669-0.37,2.762
				c-0.215,1.104-0.567,2.177-1.024,3.198c-0.444,0.994-0.975,1.953-1.622,2.824c-0.581,0.788-1.274,1.494-2.104,2
				c-1.271,0.772-2.83,1.13-4.283,0.732c-0.427-0.12-0.867-0.274-1.274-0.468c-0.9-0.426-1.652-1.107-2.262-1.909
				c-0.663-0.879-1.186-1.869-1.619-2.886c-0.448-1.05-0.792-2.151-1.009-3.279c-0.219-1.17-0.302-2.357-0.36-3.543
				c-0.004-0.146-0.02-0.291-0.02-0.437c0-5.872,2.862-12.568,7.905-12.893c0.208-0.014,0.365-0.193,0.354-0.399
				c-0.013-0.21-0.208-0.366-0.407-0.352C7.335,0.742,3.239,8.658,3.239,14.729c0,6.601,4.503,13.707,14.027,13.729
				C25.595,28.431,30.604,21.392,30.604,14.965z"/>
		</g>
		<g>
			<path fill="#4A94D0" d="M3.421,7.024c-0.073,0-0.152-0.016-0.227-0.048C2.911,6.847,2.791,6.521,2.916,6.244
				c1.963-4.275,4.938-5.14,5.058-5.174C8.273,0.991,8.58,1.157,8.659,1.452c0.084,0.292-0.091,0.601-0.382,0.679l0,0
				C8.252,2.14,5.663,2.925,3.932,6.701C3.84,6.902,3.637,7.024,3.421,7.024z"/>
		</g>
		<g>
			<path fill="#4A94D0" d="M26.292,28.887c-0.244,0-0.465-0.155-0.538-0.396c-0.08-0.292,0.086-0.597,0.381-0.683
				c0.037-0.012,2.61-0.827,4.299-4.608c0.129-0.276,0.457-0.405,0.739-0.28c0.277,0.124,0.402,0.452,0.281,0.729
				c-1.925,4.295-4.889,5.182-5.013,5.219C26.388,28.884,26.343,28.887,26.292,28.887z"/>
		</g>
		<g>
			<g>
				<path fill="#282829" d="M14.212,23.274c-0.308,0.912-1.295,1.408-2.204,1.106c-0.9-0.305-1.387-1.288-1.08-2.202
					c0.312-0.914,1.299-1.408,2.199-1.104C14.038,21.376,14.523,22.36,14.212,23.274z"/>
			</g>
		</g>
		<g>
			<g>
				<path fill="#FFFFFF" d="M13.76,22.483c-0.233,0.297-0.632,0.379-0.884,0.184c-0.254-0.199-0.279-0.599-0.045-0.897
					c0.228-0.297,0.623-0.38,0.88-0.184C13.967,21.785,13.987,22.187,13.76,22.483z"/>
			</g>
		</g>
		<g>
			<g>
				<path fill="#FAA41A" d="M21.686,22.162c-0.572,0-1.229-0.11-1.801-0.218c-2.059-0.373-4.224-0.92-6.262-1.582l-0.117-0.036
					l-0.216-0.074c-2.034-0.698-4.092-1.559-5.959-2.491c-0.664-0.334-2.045-1.027-2.225-1.674
					c-0.029-0.104-0.045-0.273,0.133-0.561c0.378-0.583,1.191-0.889,2.059-1.216c0.444-0.169,0.909-0.346,1.341-0.57
					c1.397-0.739,2.278-2.283,3.208-3.914c0.842-1.472,1.688-3.499,3.522-3.937c1.473-0.352,3.395-0.203,4.59,0.825
					c0.304,0.264,0.594,0.612,0.777,0.964c0.385,0.708,0.609,1.462,0.617,2.267c0.013,0.998-0.107,1.98-0.236,2.968
					c-0.253,1.862-0.494,3.622,0.171,5.043c0.203,0.438,0.469,0.856,0.722,1.267c0.494,0.778,0.954,1.516,0.896,2.196
					C22.881,21.736,22.845,22.162,21.686,22.162z"/>
			</g>
		</g>
		<path fill="#F7941E" d="M16.407,20.731l-0.116-0.038l-0.216-0.075c-2.037-0.695-4.091-1.558-5.959-2.491
			c-0.664-0.332-2.046-1.024-2.229-1.674c-0.025-0.102-0.041-0.273,0.138-0.558c0.369-0.579,1.186-0.889,2.059-1.215
			c0.443-0.171,0.908-0.348,1.341-0.572c1.393-0.741,2.277-2.283,3.207-3.916c0.842-1.469,1.693-3.496,3.52-3.932
			c0.266-0.067,0.552-0.107,0.842-0.133c-1.119-0.477-2.498-0.505-3.623-0.237c-1.834,0.438-2.68,2.464-3.522,3.937
			c-0.93,1.63-1.811,3.174-3.208,3.914c-0.432,0.224-0.896,0.401-1.341,0.57c-0.867,0.328-1.681,0.633-2.059,1.216
			c-0.178,0.287-0.162,0.456-0.133,0.561c0.179,0.646,1.561,1.34,2.225,1.674c1.867,0.933,3.925,1.793,5.959,2.491l0.216,0.074
			l0.117,0.036c2.038,0.662,4.203,1.209,6.262,1.582c0.572,0.107,1.229,0.218,1.801,0.218c0.066,0,0.116-0.008,0.179-0.011
			C20.051,21.787,18.184,21.309,16.407,20.731z"/>
		<g>
			<g>
				<path fill="#282829" d="M23.35,18.393c-0.239-0.38-0.469-0.741-0.626-1.093c-0.473-1.009-0.266-2.548-0.046-4.173
					c0.428-3.14,0.954-7.045-3.669-8.424c-0.045-0.019-0.095-0.037-0.157-0.06V4.641c-0.805-0.292-1.797-0.517-2.507-0.517
					c-3.054,0-4.552,2.617-5.872,4.93c-0.813,1.429-1.582,2.779-2.573,3.301c-0.34,0.183-0.743,0.331-1.161,0.492
					c-1.024,0.386-2.174,0.823-2.831,1.846c-0.474,0.745-0.439,1.394-0.32,1.81c0.337,1.217,1.685,1.979,3.033,2.654
					c1.768,0.886,3.706,1.708,5.637,2.393l0.697,0.243l0.879,0.304l0.012-0.021c1.893,0.581,3.864,1.067,5.752,1.41
					c0.644,0.117,1.382,0.243,2.087,0.243c2.271,0,2.723-1.362,2.794-2.172C24.582,20.353,23.927,19.313,23.35,18.393z
					 M21.686,22.162c-0.572,0-1.229-0.11-1.801-0.218c-2.059-0.373-4.224-0.92-6.262-1.582l-0.117-0.036l-0.216-0.074
					c-2.034-0.698-4.092-1.559-5.959-2.491c-0.664-0.334-2.045-1.027-2.225-1.674c-0.029-0.104-0.045-0.273,0.133-0.561
					c0.378-0.583,1.191-0.889,2.059-1.216c0.444-0.169,0.909-0.346,1.341-0.57c1.397-0.739,2.278-2.283,3.208-3.914
					c0.842-1.472,1.688-3.499,3.522-3.937c1.473-0.352,3.395-0.203,4.59,0.825c0.304,0.264,0.594,0.612,0.777,0.964
					c0.385,0.708,0.609,1.462,0.617,2.267c0.013,0.998-0.107,1.98-0.236,2.968c-0.253,1.862-0.494,3.622,0.171,5.043
					c0.203,0.438,0.469,0.856,0.722,1.267c0.494,0.778,0.954,1.516,0.896,2.196C22.881,21.736,22.845,22.162,21.686,22.162z"/>
			</g>
		</g>
		<path fill="#282829" d="M23.35,18.393c-0.239-0.38-0.469-0.741-0.626-1.093c-0.473-1.009-0.266-2.548-0.046-4.173
			c0.428-3.14,0.954-7.045-3.669-8.424c-0.045-0.019-0.095-0.037-0.157-0.06V4.641c-0.805-0.292-1.797-0.517-2.507-0.517
			c-3.054,0-4.552,2.617-5.872,4.93c-0.813,1.429-1.582,2.779-2.573,3.301c-0.34,0.183-0.743,0.331-1.161,0.492
			c-1.024,0.386-2.174,0.823-2.831,1.846c-0.474,0.745-0.439,1.394-0.32,1.81c0.337,1.217,1.685,1.979,3.033,2.654
			c1.768,0.886,3.706,1.708,5.637,2.393l0.697,0.243l0.879,0.304l0.012-0.021c1.893,0.581,3.864,1.067,5.752,1.41
			c0.644,0.117,1.382,0.243,2.087,0.243c2.271,0,2.723-1.362,2.794-2.172C24.582,20.353,23.927,19.313,23.35,18.393z M21.686,22.162
			c-0.572,0-1.229-0.11-1.801-0.218c-2.059-0.373-4.224-0.92-6.262-1.582l-0.117-0.036l-0.216-0.074
			c-2.034-0.698-4.092-1.559-5.959-2.491c-0.664-0.334-2.045-1.027-2.225-1.674c-0.029-0.104-0.045-0.273,0.133-0.561
			c0.378-0.583,1.191-0.889,2.059-1.216c0.444-0.169,0.909-0.346,1.341-0.57c1.397-0.739,2.278-2.283,3.208-3.914
			c0.842-1.472,1.688-3.499,3.522-3.937c1.473-0.352,3.395-0.203,4.59,0.825c0.304,0.264,0.594,0.612,0.777,0.964
			c0.385,0.708,0.609,1.462,0.617,2.267c0.013,0.998-0.107,1.98-0.236,2.968c-0.253,1.862-0.494,3.622,0.171,5.043
			c0.203,0.438,0.469,0.856,0.722,1.267c0.494,0.778,0.954,1.516,0.896,2.196C22.881,21.736,22.845,22.162,21.686,22.162z"/>
		<g>
			<path fill="#282829" d="M16.145,16.913c-4.988-1.393-6.266-2.596-6.299-2.629c-0.207-0.214-0.556-0.225-0.78-0.019
				c-0.224,0.208-0.236,0.561-0.025,0.781c0.132,0.144,1.469,1.44,6.803,2.927c0.049,0.015,0.099,0.021,0.148,0.021
				c0.241,0,0.47-0.158,0.536-0.404C16.61,17.298,16.436,16.991,16.145,16.913z"/>
		</g>
		<g>
			<g>
				<path fill="#282829" d="M19.109,4.853c-0.129,0-0.266-0.022-0.391-0.066c-0.664-0.22-1.017-0.937-0.793-1.597
					c0.22-0.644,0.954-1.01,1.599-0.796c0.659,0.219,1.017,0.934,0.788,1.597C20.143,4.505,19.657,4.853,19.109,4.853z M19.13,3.11
					c-0.203,0-0.391,0.134-0.456,0.331c-0.088,0.251,0.049,0.521,0.29,0.605c0.245,0.08,0.515-0.062,0.602-0.309
					s-0.041-0.521-0.291-0.603C19.229,3.118,19.18,3.11,19.13,3.11z"/>
			</g>
		</g>
		<g>
			<g>
				<path fill="#4A94D0" d="M16.344,31.868c-2.693,0-5.395-0.647-7.781-1.916c-3.594-1.912-6.072-4.968-6.975-8.605
					c-0.076-0.295,0.111-0.595,0.405-0.668c0.3-0.075,0.602,0.108,0.673,0.401c0.834,3.333,3.108,6.135,6.424,7.898
					c3.735,1.99,8.322,2.342,12.263,0.936c0.291-0.1,0.611,0.047,0.715,0.337c0.107,0.285-0.046,0.601-0.337,0.706
					C20.014,31.566,18.184,31.868,16.344,31.868z"/>
			</g>
			<g>
				<path fill="#4A94D0" d="M1.057,21.742c-0.096,0-0.192-0.022-0.283-0.075c-0.261-0.151-0.352-0.493-0.198-0.754
					c0.282-0.472,1.141-1.273,2.411-0.938c0.298,0.078,0.473,0.38,0.398,0.675c-0.083,0.295-0.386,0.47-0.685,0.393
					c-0.78-0.199-1.146,0.404-1.158,0.428C1.434,21.646,1.251,21.742,1.057,21.742z"/>
			</g>
			<g>
				<path fill="#4A94D0" d="M22.255,31.611c-0.046,0-0.096-0.007-0.146-0.018c-0.291-0.077-0.474-0.378-0.394-0.672
					c0.202-0.776-0.407-1.141-0.433-1.155c-0.265-0.154-0.353-0.494-0.199-0.757c0.154-0.262,0.498-0.351,0.76-0.2
					c0.474,0.277,1.286,1.13,0.946,2.39C22.724,31.449,22.499,31.611,22.255,31.611z"/>
			</g>
		</g>
	</g>
</g>
</svg>
