<?xml version="1.0" encoding="utf-8"?>
<!-- Generator: Adobe Illustrator 16.0.0, SVG Export Plug-In . SVG Version: 6.00 Build 0)  -->
<!DOCTYPE svg PUBLIC "-//W3C//DTD SVG 1.1//EN" "http://www.w3.org/Graphics/SVG/1.1/DTD/svg11.dtd">
<svg version="1.1" id="Layer_1" xmlns="http://www.w3.org/2000/svg" xmlns:xlink="http://www.w3.org/1999/xlink" x="0px" y="0px"
	 width="152.381px" height="58.957px" viewBox="0 0 152.381 58.957" enable-background="new 0 0 152.381 58.957"
	 xml:space="preserve">
<g>
	<g>
		<path fill="#FFFFFF" d="M89.029,43.043c-1.417,0-2.603,1.006-2.884,2.342c-0.106-0.018-0.209-0.047-0.319-0.047h-1.732
			c-0.011-1.151-0.946-2.08-2.1-2.08h-1.434c-1.16,0-2.1,0.939-2.1,2.1v0.739c-0.899-0.575-1.933-0.895-3.038-0.895
			c-1.268,0-2.258,0.41-2.98,1.018v-0.862c0-1.16-0.94-2.1-2.1-2.1h-1.446c-1.113,0-2.024,0.866-2.096,1.961
			c-1.384,0.119-2.522,0.852-3.25,1.959c-0.858-1.217-2.23-1.976-3.882-1.976c-1.64,0-3.055,0.779-3.946,1.984
			c-0.789-1.231-2.094-1.984-3.701-1.984c-0.426,0-0.841,0.063-1.237,0.183c-0.144-0.031-0.293-0.047-0.447-0.047h-1.437
			c-0.925,0-1.701,0.602-1.981,1.432c-0.899-0.969-2.191-1.567-3.687-1.567c-1.491,0-2.778,0.598-3.676,1.564
			c-0.281-0.829-1.057-1.429-1.98-1.429h-1.435c-0.153,0-0.302,0.016-0.445,0.047c-0.397-0.121-0.817-0.183-1.251-0.183
			c-1.611,0-2.919,0.748-3.705,1.973c-0.894-1.207-2.327-1.973-4.021-1.973c-1.419,0-2.664,0.532-3.554,1.418v-1.263
			c0-1.16-0.94-2.1-2.1-2.1h-1.436c-1.16,0-2.1,0.939-2.1,2.1v7.54c0,1.16,0.94,2.1,2.1,2.1h1.436c0.924,0,1.7-0.601,1.981-1.43
			c0.897,0.968,2.184,1.565,3.673,1.565c1.413,0,2.652-0.528,3.543-1.405c-0.218,0.768,0.008,1.614,0.637,2.159
			c1.044,0.905,2.228,1.326,3.726,1.326c2.67,0,4.514-1.393,4.949-3.625c0.897,0.956,2.178,1.545,3.658,1.545
			c1.425,0,2.675-0.536,3.568-1.426v1.271c0,1.16,0.94,2.1,2.1,2.1h1.437c1.113,0,2.024-0.865,2.096-1.961
			c1.416-0.116,2.559-0.846,3.28-1.969c0.897,1.215,2.34,1.985,4.045,1.985c1.424,0,2.762-0.478,3.669-1.31
			c0.127-0.117,0.234-0.249,0.326-0.388c0.809,1.049,2.017,1.697,3.458,1.697c0.43,0,0.846-0.062,1.24-0.183
			c0.144,0.031,0.292,0.047,0.444,0.047h1.446c0.713,0,1.342-0.357,1.721-0.901c0.926,0.653,2.111,1.037,3.372,1.037
			c1.496,0,2.588-0.477,3.323-1.174c0.365,0.619,1.031,1.038,1.802,1.038h1.434c0.384,0,0.743-0.103,1.052-0.282
			c0.315,0.183,0.677,0.282,1.052,0.282h1.797c0.442,0,0.856-0.15,1.204-0.396c0.345,0.247,0.764,0.396,1.22,0.396h1.436
			c1.16,0,2.1-0.939,2.1-2.1v-5.46c0-0.154-0.019-0.305-0.051-0.449c0.113-0.313,0.186-0.646,0.186-0.998
			C91.988,44.365,90.661,43.043,89.029,43.043z M26.721,49.656c0.376,0,0.694,0.341,0.709,0.504c-0.01,0.176-0.337,0.52-0.709,0.52
			c-0.366,0-0.688-0.344-0.698-0.512C26.039,49.997,26.352,49.656,26.721,49.656z M43.234,49.656c0.376,0,0.694,0.341,0.71,0.504
			c-0.01,0.174-0.325,0.52-0.71,0.52c-0.366,0-0.688-0.344-0.699-0.512C42.551,49.997,42.864,49.656,43.234,49.656z M68.243,50.134
			v0.092c-0.15,0.049-0.295,0.114-0.433,0.195l-0.386-0.253l0.37-0.243C67.936,50.013,68.086,50.082,68.243,50.134z M51.749,50.173
			l-0.33,0.223c-0.132-0.079-0.272-0.144-0.417-0.191V50.11c0.139-0.045,0.273-0.104,0.4-0.176L51.749,50.173z M89.029,44.749
			c0.458,0,0.843,0.258,1.062,0.623c-0.11-0.019-0.222-0.034-0.337-0.034h-0.193c-0.147-0.116-0.327-0.195-0.531-0.195
			c-0.199,0-0.376,0.079-0.521,0.195h-0.189c-0.116,0-0.229,0.016-0.341,0.034C88.194,45.007,88.575,44.749,89.029,44.749z"/>
		<path fill="#FFFFFF" d="M137.551,45.202c-0.411,0-0.828,0.068-1.231,0.198c-0.164-0.041-0.335-0.063-0.511-0.063h-1.436
			c-0.896,0-1.655,0.563-1.957,1.354c-0.788-0.931-2.019-1.489-3.553-1.489c-1.224,0-2.365,0.377-3.3,1.037
			c-0.195-0.278-0.447-0.515-0.751-0.671c-0.178-0.979-1.035-1.722-2.066-1.722h-1.436c-1.077,0-1.965,0.811-2.086,1.854
			c-0.174,0.118-0.32,0.27-0.451,0.434c-0.67-0.588-1.575-0.933-2.656-0.933c-0.469,0-0.934,0.07-1.376,0.204
			c-0.171-0.045-0.351-0.068-0.536-0.068h-1.436c-0.9,0-1.662,0.569-1.96,1.365c-0.861-0.938-2.086-1.501-3.515-1.501
			c-1.452,0-2.729,0.612-3.622,1.588c-0.585-0.686-1.722-1.588-3.651-1.588c-2.847,0-4.992,2.132-4.992,4.96
			c0,2.834,2.146,4.971,4.992,4.971c1.917,0,3.055-0.901,3.645-1.591c0.904,0.982,2.208,1.591,3.721,1.591
			c1.367,0,2.647-0.45,3.554-1.225c0.357,0.646,1.038,1.089,1.829,1.089h1.436c0.414,0,0.801-0.119,1.126-0.327
			c0.325,0.208,0.712,0.327,1.126,0.327h1.447c0.88,0,1.63-0.541,1.942-1.308c0.627,0.903,1.679,1.443,3.001,1.443
			c1.332,0,2.149-0.481,2.601-0.885c0.017-0.016,0.026-0.035,0.043-0.051c0.734,0.6,1.666,0.936,2.591,0.936
			c0.456,0,0.897-0.061,1.313-0.178c0.136,0.028,0.276,0.042,0.42,0.042h1.445c0.621,0,1.173-0.274,1.557-0.702
			c0.384,0.428,0.936,0.702,1.557,0.702h1.436c1.16,0,2.1-0.939,2.1-2.1v-2.125c0.352-0.061,0.686-0.21,0.968-0.44
			c0.49-0.398,0.774-0.997,0.774-1.629v-1.401C139.65,46.142,138.711,45.202,137.551,45.202z"/>
		<path fill="#FFFFFF" d="M22.93,35.135c7.634,0,11.757-6.116,12.066-12.396c0.58,1.058,1.395,1.943,2.448,2.62
			c-0.36,0.738-0.618,1.607-0.618,2.581c0,1.043,0.231,1.907,0.623,2.626c-2.751,0.497-3.387,2.197-3.387,3.66
			c0,3.468,3.771,7.211,9.862,7.211c6.461,0,11.151-3.51,11.151-8.347c0-0.076-0.009-0.145-0.011-0.22
			c1.576,3.116,4.145,5.72,7.483,7.512c2.912,1.562,6.233,2.386,9.606,2.386c1.769,0,3.498-0.225,5.159-0.669
			c0.222,0.132,0.468,0.235,0.734,0.306c1.467,0.351,2.909-0.549,3.274-1.948c0.149-0.569,0.185-1.115,0.132-1.628
			c0.474,0.385,1.071,0.616,1.71,0.616c0.228,0,0.462-0.03,0.766-0.11c0.443-0.131,4.407-1.442,6.87-6.984
			c0.608-1.366-0.009-2.976-1.375-3.585c-0.263-0.118-0.54-0.177-0.822-0.206c0.928-2.171,1.435-4.484,1.435-6.753
			c0-9.506-5.396-15.555-14.346-16.173c-0.023-0.003-0.048-0.005-0.072-0.007c0-0.037-0.002-0.074-0.004-0.112
			c-0.087-1.366-1.291-2.454-2.675-2.355c-2.95,0.184-5.529,0.934-7.744,2.081c-0.505-0.649-1.288-1.062-2.145-1.062
			c-0.235,0-0.47,0.03-0.731,0.1c-0.411,0.115-3.827,1.206-6.336,5.737c0.022-0.182,0.038-0.365,0.038-0.552
			c0-3.219-3.228-3.53-4.289-3.633l-0.412-0.043c-0.565-0.063-1.13,0.103-1.569,0.462c-0.439,0.36-0.714,0.882-0.762,1.447
			c-0.126,1.48-0.374,1.943-0.461,2.063c-1.203-0.355-2.572-0.541-3.996-0.541c-5.597,0-9.908,3.451-10.476,8.187
			c-1.614-3.661-5.232-6.537-10.747-6.537c-7.94,0-12.095,6.333-12.095,12.589c0,1.816,0.395,3.639,1.171,5.286
			c-0.623-0.323-1.384-0.325-2.009,0.011c-0.004-0.066-0.008-0.14-0.011-0.22c-0.102-2.99-0.151-6.286-0.151-10.074
			c0-2.018,0.039-4.025,0.077-6.01c0.038-1.963,0.075-3.902,0.075-5.805c0-3.184-2.339-4.832-6.953-4.901
			C2.711,1.746,2.109,2.045,1.705,2.578L1.591,2.729C0.984,3.534,0.786,4.341,1.435,5.063c0.092,0.312,0.306,1.228,0.417,3.27
			c0.119,2.546,0.187,5.933,0.187,9.294c0,2.362-0.057,4.843-0.106,7.032c-0.043,1.901-0.083,3.651-0.083,5.082
			c0,3.276,2.162,5.394,5.506,5.394c3.689,0,5.603-2.301,6.151-3.66c0.087-0.215,0.134-0.438,0.147-0.659
			C15.609,33.365,18.715,35.135,22.93,35.135z M44.303,21.033c-1.582,0-1.914-1.824-1.914-3.354c0-1.507,0.848-2.557,1.61-2.557
			c1.582,0,1.914,1.823,1.914,3.352C45.913,19.861,45.176,21.033,44.303,21.033z M44.833,35.571c-1.925,0-2.754-1.015-3.107-1.968
			c1.08,0.344,2.17,0.555,3.076,0.729c0.747,0.145,1.787,0.345,2.387,0.557C46.798,35.304,45.773,35.571,44.833,35.571z
			 M55.149,12.118c-0.031,0.392,0.016,0.787,0.157,1.166c0.255,0.68,0.76,1.22,1.386,1.502c0.03,0.015,0.063,0.019,0.093,0.032
			c-0.818,2.168-1.244,4.46-1.244,6.723c0,1.254,0.143,2.508,0.396,3.739c-1.479,0.263-2.549,1.241-3.052,2.101
			c-0.128,0.219-0.211,0.452-0.274,0.691c-1.316-0.962-2.98-1.496-4.538-1.843c3.803-1.354,6.281-4.541,6.281-8.55
			c0-1.485-0.304-2.825-0.894-3.98C54.161,13.252,54.725,12.717,55.149,12.118z M23.308,29.194c-2.128,0-3.276-3.288-3.276-6.382
			c0-2.909,1.002-6.002,2.859-6.002c2.432,0,3.315,3.499,3.315,5.851C26.206,25.872,25.122,29.194,23.308,29.194z"/>
		<path fill="#FFFFFF" d="M147.692,28.673c0.079,0.007,0.158,0.011,0.217,0.011c1.271,0,2.347-0.909,2.559-2.163l0.844-4.995
			c0.239-1.411-0.714-2.754-2.108-2.991c-0.107-0.019-0.275-0.033-0.399-0.037c0.088-0.631,0.171-1.199,0.253-1.756
			c0.188-1.269,0.371-2.52,0.596-4.428c0.373-3.161-1.758-5.072-6.333-5.68c-0.668-0.085-1.335,0.148-1.799,0.636l-0.131,0.138
			c-0.693,0.729-0.982,1.503-0.422,2.294c0.055,0.322,0.159,1.257,0.031,3.297l-0.083,1.243c-0.099,1.517-0.158,2.432-0.486,5.23
			c-0.274,2.34-0.57,4.378-0.831,6.176c-0.229,1.573-0.438,3.021-0.606,4.446c-0.018,0.146-0.021,0.281-0.028,0.42
			c-0.109,0.037-0.223,0.062-0.327,0.116c-0.002-0.063-0.004-0.134-0.004-0.211c-0.016-2.992,0.03-6.288,0.141-10.076
			c0.057-2.001,0.152-3.991,0.246-5.958c0.095-1.978,0.188-3.931,0.241-5.845c0.096-3.185-2.195-4.901-6.808-5.102
			c-0.686-0.038-1.312,0.262-1.729,0.783l-0.119,0.148c-0.634,0.789-0.856,1.593-0.223,2.334c0.083,0.316,0.27,1.237,0.321,3.276
			c0.019,1.06,0.024,2.26,0.019,3.531c-1.217-1.82-3.392-3.304-6.727-3.801c-0.511-0.076-1.026-0.114-1.532-0.114
			c-0.946,0-1.84,0.143-2.688,0.38c-0.012-0.052-0.014-0.104-0.028-0.156c-0.316-1.136-1.362-1.929-2.543-1.929
			c-0.228,0-0.454,0.029-0.736,0.104c-0.653,0.192-4.022,1.396-6.199,6.183c-0.073,0.161-0.13,0.326-0.169,0.494
			c-1.803-2.701-4.655-4.239-7.974-3.946c-1.454,0.125-2.678,0.486-3.694,0.974c-0.025-0.543-0.062-1.1-0.109-1.653
			c-0.327-3.801-0.666-7.73-6.379-7.73c-0.412,0-0.86,0.019-1.352,0.057c-0.661,0.052-1.259,0.413-1.612,0.974l-0.102,0.161
			c-0.479,0.76-0.415,1.722,0.116,2.407c0.207,0.55,0.684,2.587,1.336,10.104c0.117,1.364,0.247,2.764,0.377,4.165
			c0.136,1.464,0.272,2.93,0.394,4.356c0.079,0.912,0.141,1.834,0.203,2.777c0.068,1.009,0.137,2.042,0.229,3.115
			c0.256,2.966,3.124,4.883,7.308,4.883c0.401,0,0.811-0.018,1.223-0.054c6.078-0.524,10.184-3.789,11.57-8.876
			c1.262,3.836,4.421,6.679,8.637,7.307c0.667,0.1,1.326,0.15,1.958,0.15c4.504,0,6.886-2.455,7.914-3.933
			c-0.021,0.516-0.041,1.014-0.055,1.471c-0.093,3.274,2.007,5.452,5.349,5.548l0.254,0.004c2.41,0,4.043-1.02,5.028-2.079
			c0.819,0.672,1.878,1.097,3.114,1.24c0.34,0.04,0.665,0.058,0.972,0.058c3.106,0,4.959-1.871,5.563-2.977
			c0.455-0.833,0.295-1.868-0.391-2.525l-0.137-0.131c-0.598-0.57-1.504-0.713-2.268-0.411c0.004-0.065,0.009-0.139,0.016-0.219
			C147.624,29.463,147.658,29.06,147.692,28.673z M99.976,29.302c0.004,0,0.004,0.001,0.01,0.001c0.031,0.009,0.078,0.03,0.1,0.051
			c-0.012-0.012-0.021-0.039-0.033-0.054c0.011-0.001,0.015-0.001,0.028-0.002l0.005,0.056 M102.684,27.303
			c-0.68,1.381-2.303,1.852-2.65,1.968c-0.44-0.604-0.654-3.017-0.735-3.952l-0.01-0.109c-0.146-1.724-0.284-3.352-0.242-4.828
			c0.027-0.827,0.274-2.765,1.991-2.912l0.059-0.002c0.772,0,2.103,1.911,2.35,4.794C103.609,24.148,103.331,25.985,102.684,27.303z
			 M122.6,15.514l0.035,0.003c0.386,0.058,0.452,0.192,0.51,0.313c0.146,0.301,0.186,0.799,0.106,1.331
			c-0.052,0.348-0.147,0.994-1.26,0.994c-0.121,0-0.241-0.01-0.358-0.027c-0.375-0.056-0.767-0.164-1.114-0.283
			C121.086,16.74,122.024,15.514,122.6,15.514z M130.316,26.332c-0.002,0.037-0.004,0.072-0.006,0.109
			c-0.634-0.771-1.732-0.998-2.621-0.518c-0.021,0.011-2.03,1.083-4.116,1.083c-0.268,0-0.526-0.019-0.768-0.055
			c-1.213-0.181-2.057-0.732-2.578-1.687c-0.226-0.413-0.39-0.893-0.489-1.431c0.539,0.184,1.127,0.337,1.745,0.429
			c0.696,0.104,1.399,0.156,2.092,0.156c3.09,0,5.538-1.047,6.968-2.858C130.477,23.201,130.394,24.835,130.316,26.332z"/>
	</g>
	<g>
		<g>
			<g>
				<path fill="#282829" d="M19.631,52.897v-7.54h1.436v7.54H19.631z"/>
				<path fill="#282829" d="M23.839,50.162c0-1.548,1.084-2.86,2.882-2.86c1.81,0,2.895,1.313,2.895,2.86
					c0,1.549-1.085,2.871-2.895,2.871C24.923,53.033,23.839,51.711,23.839,50.162z M28.124,50.162c0-0.848-0.497-1.582-1.402-1.582
					c-0.893,0-1.391,0.734-1.391,1.582c0,0.859,0.498,1.594,1.391,1.594C27.626,51.756,28.124,51.021,28.124,50.162z"/>
				<path fill="#282829" d="M32.277,54.3l0.644-1.03c0.441,0.477,1.029,0.668,1.707,0.668c0.689,0,1.516-0.294,1.516-1.401v-0.533
					c-0.43,0.545-1.019,0.85-1.696,0.85c-1.356,0-2.407-0.949-2.407-2.77c0-1.787,1.028-2.781,2.407-2.781
					c0.656,0,1.254,0.272,1.696,0.836v-0.7h1.435v5.099c0,2.067-1.604,2.577-2.95,2.577C33.701,55.113,32.966,54.897,32.277,54.3z
					 M36.143,50.963v-1.773c-0.249-0.35-0.77-0.609-1.232-0.609c-0.826,0-1.391,0.565-1.391,1.503c0,0.938,0.564,1.504,1.391,1.504
					C35.374,51.587,35.894,51.315,36.143,50.963z"/>
				<path fill="#282829" d="M40.351,50.162c0-1.548,1.086-2.86,2.883-2.86c1.81,0,2.895,1.313,2.895,2.86
					c0,1.549-1.085,2.871-2.895,2.871C41.437,53.033,40.351,51.711,40.351,50.162z M44.635,50.162c0-0.848-0.497-1.582-1.401-1.582
					c-0.893,0-1.39,0.734-1.39,1.582c0,0.859,0.497,1.594,1.39,1.594C44.138,51.756,44.635,51.021,44.635,50.162z"/>
				<path fill="#282829" d="M50.338,52.196v2.781h-1.437v-7.54h1.437v0.689c0.417-0.531,1.018-0.825,1.684-0.825
					c1.402,0,2.42,1.04,2.42,2.86s-1.018,2.871-2.42,2.871C51.378,53.033,50.791,52.762,50.338,52.196z M52.961,50.162
					c0-0.939-0.565-1.582-1.391-1.582c-0.464,0-0.983,0.26-1.232,0.621v1.921c0.237,0.353,0.769,0.634,1.232,0.634
					C52.396,51.756,52.961,51.111,52.961,50.162z"/>
				<path fill="#282829" d="M56.842,50.162c0-1.582,1.177-2.86,2.826-2.86c1.64,0,2.735,1.221,2.735,2.995v0.34h-4.059
					c0.103,0.666,0.645,1.221,1.571,1.221c0.465,0,1.097-0.191,1.447-0.531l0.646,0.949c-0.543,0.498-1.403,0.758-2.25,0.758
					C58.098,53.033,56.842,51.914,56.842,50.162z M59.668,48.478c-0.893,0-1.277,0.622-1.334,1.164h2.69
					C60.98,49.122,60.619,48.478,59.668,48.478z"/>
				<path fill="#282829" d="M68.897,52.897v-0.701c-0.431,0.543-1.018,0.837-1.685,0.837c-1.367,0-2.419-1.04-2.419-2.871
					c0-1.774,1.028-2.86,2.419-2.86c0.645,0,1.254,0.272,1.685,0.836v-2.78h1.446v7.54H68.897z M68.897,51.135v-1.934
					c-0.237-0.361-0.757-0.621-1.232-0.621c-0.825,0-1.391,0.643-1.391,1.582c0,0.949,0.565,1.594,1.391,1.594
					C68.14,51.756,68.66,51.496,68.897,51.135z"/>
				<path fill="#282829" d="M72.994,52.186l0.622-1.04c0.407,0.384,1.21,0.758,1.888,0.758c0.623,0,0.916-0.237,0.916-0.577
					c0-0.892-3.233-0.158-3.233-2.305c0-0.917,0.791-1.72,2.237-1.72c0.916,0,1.651,0.317,2.194,0.746l-0.576,1.018
					c-0.328-0.338-0.95-0.634-1.618-0.634c-0.52,0-0.857,0.227-0.857,0.531c0,0.804,3.243,0.125,3.243,2.33
					c0,1.006-0.859,1.74-2.373,1.74C74.486,53.033,73.57,52.717,72.994,52.186z"/>
				<path fill="#282829" d="M84.098,52.897l-1.447-2.103l-0.656,0.701v1.401h-1.434v-7.54h1.434v4.511l2.068-2.431h1.764
					l-2.16,2.477l2.229,2.983H84.098z"/>
				<path fill="#282829" d="M88.182,45.99c0-0.475,0.385-0.848,0.848-0.848c0.475,0,0.859,0.373,0.859,0.848
					s-0.385,0.858-0.859,0.858C88.566,46.849,88.182,46.465,88.182,45.99z M88.318,52.897v-5.46h1.436v5.46H88.318z"/>
				<path fill="#282829" d="M97.129,50.162c0-1.673,1.221-2.86,2.893-2.86c1.121,0,1.797,0.486,2.16,0.983l-0.939,0.883
					c-0.26-0.385-0.654-0.588-1.152-0.588c-0.869,0-1.482,0.632-1.482,1.582c0,0.949,0.613,1.594,1.482,1.594
					c0.498,0,0.893-0.227,1.152-0.599l0.939,0.881c-0.363,0.498-1.039,0.995-2.16,0.995C98.35,53.033,97.129,51.847,97.129,50.162z"
					/>
				<path fill="#282829" d="M104.469,50.162c0-1.582,1.178-2.86,2.826-2.86c1.641,0,2.734,1.221,2.734,2.995v0.34h-4.057
					c0.102,0.666,0.643,1.221,1.57,1.221c0.465,0,1.098-0.191,1.447-0.531l0.646,0.949c-0.545,0.498-1.402,0.758-2.25,0.758
					C105.725,53.033,104.469,51.914,104.469,50.162z M107.295,48.478c-0.893,0-1.277,0.622-1.332,1.164h2.689
					C108.605,49.122,108.244,48.478,107.295,48.478z"/>
				<path fill="#282829" d="M116.457,52.897v-3.301c0-0.757-0.396-1.017-1.008-1.017c-0.566,0-0.994,0.315-1.244,0.632v3.686h-1.436
					v-5.46h1.436v0.7c0.352-0.406,1.031-0.836,1.912-0.836c1.211,0,1.787,0.679,1.787,1.741v3.854H116.457z"/>
				<path fill="#282829" d="M121.311,51.529v-2.838h-0.904v-1.254h0.904v-1.491h1.436v1.491h1.107v1.254h-1.107v2.454
					c0,0.351,0.18,0.61,0.498,0.61c0.213,0,0.416-0.08,0.496-0.169l0.307,1.097c-0.215,0.192-0.602,0.35-1.199,0.35
					C121.842,53.033,121.311,52.513,121.311,51.529z"/>
				<path fill="#282829" d="M129.814,52.897v-0.575c-0.375,0.451-1.018,0.711-1.732,0.711c-0.869,0-1.887-0.588-1.887-1.81
					c0-1.288,1.018-1.762,1.887-1.762c0.736,0,1.369,0.236,1.732,0.666v-0.688c0-0.554-0.477-0.917-1.199-0.917
					c-0.576,0-1.119,0.227-1.572,0.646l-0.564-1.008c0.668-0.599,1.527-0.858,2.385-0.858c1.256,0,2.396,0.498,2.396,2.068v3.527
					H129.814z M129.814,51.587v-0.679c-0.238-0.316-0.691-0.485-1.154-0.485c-0.564,0-1.029,0.305-1.029,0.825
					c0,0.52,0.465,0.813,1.029,0.813C129.123,52.062,129.576,51.903,129.814,51.587z"/>
				<path fill="#282829" d="M134.373,52.897v-5.46h1.436v0.735c0.395-0.475,1.063-0.871,1.742-0.871v1.401
					c-0.104-0.021-0.227-0.034-0.396-0.034c-0.475,0-1.107,0.272-1.346,0.623v3.605H134.373z"/>
			</g>
		</g>
		<g>
			<path fill="#4A94D0" d="M87.936,21.806c0-6.594-2.922-13.424-12.479-14.086c-0.192-0.015-0.38,0.156-0.393,0.383
				c-0.014,0.225,0.141,0.42,0.344,0.435c4.897,0.354,6.618,6.68,6.618,13.065c0,1.246-0.168,1.863-0.404,3.083
				c-0.24,1.232-0.627,2.426-1.137,3.569c-0.492,1.105-1.08,2.178-1.795,3.15c-0.645,0.878-1.408,1.667-2.331,2.232
				c-1.407,0.861-3.131,1.258-4.735,0.813c-0.477-0.131-0.963-0.305-1.411-0.519c-1.005-0.477-1.834-1.238-2.506-2.132
				c-0.737-0.979-1.314-2.085-1.792-3.216c-0.498-1.177-0.878-2.404-1.117-3.665c-0.246-1.304-0.337-2.628-0.399-3.951
				c-0.007-0.162-0.021-0.324-0.021-0.484c0-6.559,3.168-14.029,8.749-14.393c0.231-0.015,0.406-0.215,0.392-0.445
				c-0.015-0.231-0.229-0.409-0.448-0.393c-10.89,0.679-15.428,9.515-15.428,16.287c0,7.367,4.992,15.295,15.53,15.319
				C82.395,36.833,87.936,28.978,87.936,21.806z"/>
		</g>
		<path fill="#4A94D0" d="M4.139,17.627c0-3.561-0.076-6.968-0.189-9.392c-0.19-3.482-0.683-4.24-0.683-4.24l0.114-0.151
			c2.537,0.038,4.885,0.455,4.885,2.802c0,3.824-0.152,7.801-0.152,11.814c0,3.368,0.039,6.814,0.152,10.146
			c0.038,1.287,0.378,2.5,1.704,2.5c0.757,0,1.438-0.53,1.438-0.53l0.151,0.113c0,0-0.947,2.347-4.204,2.347
			c-1.666,0-3.406-0.757-3.406-3.294C3.95,26.638,4.139,22.019,4.139,17.627z"/>
		<path fill="#4A94D0" d="M23.308,12.968c6.361,0,9.618,4.43,9.618,9.012c0,5.642-3.483,11.056-9.996,11.056
			c-6.36,0-9.617-4.657-9.617-9.578C13.313,18.043,16.758,12.968,23.308,12.968z M23.308,31.294c3.37,0,4.998-4.316,4.998-8.633
			c0-3.976-1.779-7.95-5.415-7.95c-3.369,0-4.959,4.051-4.959,8.102C17.932,27.09,19.711,31.294,23.308,31.294z"/>
		<path fill="#4A94D0" d="M39.38,32.521c0.113,1.818,1.25,5.149,5.452,5.149c2.234,0,4.619-0.984,4.619-3.144
			c0-3.294-10.525-1.06-10.525-6.588c0-1.552,1.06-2.802,1.78-3.444c-3.029-0.796-4.62-2.841-4.62-6.021
			c0-4.089,3.521-7.156,8.444-7.156c1.476,0,2.801,0.227,3.861,0.605c1.969-0.075,2.499-1.816,2.688-4.05
			c1.325,0.151,2.839,0.112,2.839,1.589c0,1.894-2.045,2.954-3.861,3.37c1.438,1.098,2.195,2.726,2.195,4.847
			c0,4.126-3.521,7.155-8.443,7.155c-0.644,0-1.211,0-1.741-0.075c-0.341,0.491-0.568,1.06-0.568,1.324
			c0,2.841,11.474,0.454,11.474,7.006c0,3.597-3.787,6.247-9.051,6.247c-5.11,0-7.762-2.992-7.762-5.111
			C36.162,32.483,38.093,32.521,39.38,32.521z M48.013,18.475c0-2.916-1.136-5.451-4.014-5.451c-2.082,0-3.71,2.118-3.71,4.656
			c0,2.915,1.135,5.453,4.014,5.453C46.423,23.133,48.013,21.012,48.013,18.475z"/>
		<g>
			<path fill="#4A94D0" d="M57.849,12.946c-0.085,0-0.172-0.017-0.254-0.056c-0.311-0.141-0.447-0.506-0.307-0.816
				c2.172-4.772,5.46-5.736,5.599-5.775c0.329-0.087,0.667,0.102,0.759,0.429s-0.099,0.667-0.425,0.759l0,0
				c-0.029,0.009-2.893,0.883-4.811,5.099C58.307,12.812,58.083,12.946,57.849,12.946z"/>
		</g>
		<g>
			<path fill="#4A94D0" d="M83.162,37.345c-0.268,0-0.516-0.177-0.592-0.447c-0.094-0.326,0.094-0.666,0.418-0.762
				c0.047-0.015,2.889-0.92,4.764-5.141c0.139-0.31,0.502-0.453,0.814-0.313c0.311,0.139,0.451,0.503,0.313,0.814
				c-2.129,4.791-5.408,5.783-5.547,5.824C83.275,37.335,83.217,37.345,83.162,37.345z"/>
		</g>
		<g>
			<g>
				
					<ellipse transform="matrix(0.9479 0.3186 -0.3186 0.9479 13.2488 -20.0692)" fill="#282829" cx="67.976" cy="30.467" rx="1.916" ry="1.946"/>
			</g>
		</g>
		<g>
			<g>
				
					<ellipse transform="matrix(0.7922 0.6103 -0.6103 0.7922 32.4753 -35.7776)" fill="#FFFFFF" cx="68.774" cy="29.798" rx="0.652" ry="0.758"/>
			</g>
		</g>
		<g>
			<g>
				<path fill="#FAA41A" d="M78.066,29.838c-0.635,0-1.363-0.125-1.997-0.241c-2.278-0.419-4.674-1.028-6.931-1.768l-0.127-0.04
					l-0.244-0.085c-2.248-0.776-4.527-1.737-6.591-2.778c-0.735-0.373-2.265-1.146-2.465-1.869
					c-0.032-0.114-0.052-0.305,0.148-0.621c0.412-0.648,1.317-0.993,2.275-1.359c0.498-0.189,1.013-0.385,1.488-0.638
					c1.545-0.822,2.52-2.543,3.551-4.366c0.931-1.643,1.87-3.902,3.896-4.39c1.64-0.396,3.764-0.227,5.085,0.922
					c0.335,0.291,0.653,0.679,0.862,1.071c0.42,0.791,0.672,1.632,0.682,2.53c0.016,1.115-0.117,2.213-0.266,3.315
					c-0.279,2.075-0.543,4.037,0.191,5.626c0.227,0.488,0.518,0.957,0.801,1.409c0.543,0.871,1.055,1.691,0.99,2.455
					C79.387,29.36,79.346,29.838,78.066,29.838z"/>
			</g>
		</g>
		<path fill="#F7941E" d="M72.219,28.24l-0.126-0.04l-0.244-0.084c-2.248-0.777-4.527-1.738-6.591-2.78
			c-0.735-0.371-2.265-1.145-2.466-1.869c-0.031-0.114-0.05-0.303,0.15-0.621c0.41-0.647,1.315-0.992,2.274-1.357
			c0.498-0.19,1.012-0.387,1.487-0.639c1.546-0.822,2.521-2.544,3.552-4.367c0.93-1.642,1.87-3.902,3.896-4.389
			c0.295-0.072,0.61-0.118,0.931-0.149c-1.241-0.534-2.767-0.562-4.013-0.262c-2.025,0.487-2.965,2.747-3.896,4.39
			c-1.031,1.823-2.006,3.544-3.551,4.366c-0.476,0.253-0.99,0.448-1.488,0.638c-0.958,0.366-1.863,0.711-2.275,1.359
			c-0.2,0.316-0.181,0.507-0.148,0.621c0.2,0.724,1.729,1.496,2.465,1.869c2.063,1.041,4.343,2.002,6.591,2.778l0.244,0.085
			l0.127,0.04c2.257,0.739,4.653,1.349,6.931,1.768c0.634,0.116,1.362,0.241,1.997,0.241c0.074,0,0.129-0.008,0.193-0.011
			C76.255,29.422,74.186,28.884,72.219,28.24z"/>
		<g>
			<g>
				<g>
					<path fill="#282829" d="M79.906,25.633c-0.264-0.426-0.516-0.83-0.695-1.218c-0.521-1.128-0.291-2.844-0.047-4.66
						c0.473-3.5,1.059-7.858-4.058-9.398c-0.052-0.022-0.109-0.042-0.18-0.065l0.003-0.004c-0.89-0.329-1.993-0.576-2.777-0.576
						c-3.385,0-5.038,2.923-6.498,5.501c-0.902,1.595-1.754,3.101-2.851,3.684c-0.38,0.202-0.822,0.37-1.29,0.549
						c-1.129,0.43-2.406,0.917-3.129,2.058c-0.526,0.833-0.484,1.559-0.357,2.021c0.375,1.355,1.866,2.207,3.362,2.962
						c1.959,0.989,4.105,1.907,6.24,2.671l0.768,0.271l0.979,0.337l0.009-0.022c2.095,0.65,4.279,1.191,6.368,1.573
						c0.71,0.131,1.532,0.271,2.313,0.271c2.51,0,3.014-1.519,3.09-2.424C81.27,27.818,80.547,26.656,79.906,25.633z M78.066,29.838
						c-0.635,0-1.363-0.125-1.997-0.241c-2.278-0.419-4.674-1.028-6.931-1.768l-0.127-0.04l-0.244-0.085
						c-2.248-0.776-4.527-1.737-6.591-2.778c-0.735-0.373-2.265-1.146-2.465-1.869c-0.032-0.114-0.052-0.305,0.148-0.621
						c0.412-0.648,1.317-0.993,2.275-1.359c0.498-0.189,1.013-0.385,1.488-0.638c1.545-0.822,2.52-2.543,3.551-4.366
						c0.931-1.643,1.87-3.902,3.896-4.39c1.64-0.396,3.764-0.227,5.085,0.922c0.335,0.291,0.653,0.679,0.862,1.071
						c0.42,0.791,0.672,1.632,0.682,2.53c0.016,1.115-0.117,2.213-0.266,3.315c-0.279,2.075-0.543,4.037,0.191,5.626
						c0.227,0.488,0.518,0.957,0.801,1.409c0.543,0.871,1.055,1.691,0.99,2.455C79.387,29.36,79.346,29.838,78.066,29.838z"/>
				</g>
			</g>
			<g>
				<path fill="#282829" d="M71.929,23.978c-5.52-1.55-6.935-2.895-6.97-2.928c-0.231-0.24-0.618-0.252-0.864-0.023
					c-0.249,0.232-0.264,0.622-0.031,0.871c0.149,0.159,1.626,1.608,7.532,3.267c0.056,0.015,0.112,0.022,0.167,0.022
					c0.27,0,0.517-0.177,0.594-0.449C72.449,24.408,72.257,24.069,71.929,23.978z"/>
			</g>
			<g>
				<g>
					<path fill="#282829" d="M75.214,10.521c-0.148,0-0.296-0.023-0.438-0.072c-0.729-0.244-1.122-1.042-0.874-1.78
						c0.244-0.721,1.057-1.131,1.773-0.892c0.727,0.245,1.118,1.044,0.872,1.781C76.353,10.135,75.817,10.521,75.214,10.521z
						 M75.235,8.579c-0.228,0-0.431,0.147-0.506,0.369c-0.094,0.279,0.052,0.581,0.325,0.673c0.269,0.09,0.572-0.067,0.664-0.342
						C75.812,9,75.667,8.697,75.395,8.605C75.343,8.587,75.289,8.579,75.235,8.579z"/>
				</g>
			</g>
		</g>
		<g>
			<g>
				<path fill="#4A94D0" d="M72.153,40.668c-2.982,0-5.977-0.723-8.614-2.137c-3.979-2.136-6.72-5.545-7.722-9.604
					c-0.082-0.33,0.121-0.664,0.451-0.745c0.328-0.084,0.664,0.121,0.745,0.45c0.917,3.716,3.441,6.843,7.107,8.811
					c4.136,2.22,9.212,2.611,13.581,1.046c0.318-0.116,0.672,0.052,0.789,0.373c0.115,0.32-0.051,0.673-0.373,0.788
					C76.214,40.332,74.186,40.668,72.153,40.668z"/>
			</g>
			<g>
				<path fill="#4A94D0" d="M55.228,29.37c-0.105,0-0.213-0.026-0.311-0.084c-0.294-0.171-0.393-0.55-0.221-0.843
					c0.308-0.525,1.26-1.421,2.664-1.047c0.33,0.086,0.526,0.423,0.439,0.753c-0.086,0.327-0.422,0.525-0.752,0.438
					c-0.865-0.221-1.271,0.451-1.287,0.479C55.646,29.262,55.44,29.37,55.228,29.37z"/>
			</g>
			<g>
				<path fill="#4A94D0" d="M78.695,40.383c-0.053,0-0.105-0.008-0.158-0.021c-0.328-0.086-0.525-0.422-0.439-0.752
					c0.227-0.864-0.449-1.272-0.479-1.288c-0.293-0.172-0.393-0.55-0.221-0.843c0.172-0.294,0.551-0.394,0.844-0.222
					c0.523,0.309,1.416,1.26,1.047,2.665C79.217,40.199,78.969,40.383,78.695,40.383z"/>
			</g>
		</g>
		<g>
			<path fill="#14AA5E" d="M93.193,24.36c-0.238-2.791-0.531-5.731-0.771-8.521c-0.301-3.471-0.947-10.522-1.768-11.211l0.102-0.161
				c4.756-0.372,5.088,1.271,5.475,5.761c0.254,2.942,0.145,6.067,0.145,6.067l0.115,0.029c0,0,1.215-3.108,5.816-3.506
				c4.301-0.371,7.27,3.212,7.684,8.003c0.566,6.563-2.602,11.7-10.107,12.349c-3.133,0.27-6.063-0.655-6.258-2.918
				C93.447,28.176,93.355,26.247,93.193,24.36z M105.537,22.079c-0.297-3.471-2.078-6.928-4.682-6.702
				c-2.264,0.193-3.814,2.037-3.908,4.936c-0.047,1.638,0.107,3.41,0.258,5.184c0.285,3.281,0.641,6.101,3.055,5.894
				C104.334,31.039,105.914,26.417,105.537,22.079z"/>
			<path fill="#FAA41A" d="M123.686,11.788c4.943,0.736,6.471,3.835,6.092,6.383c-0.557,3.745-4.689,4.507-7.984,4.016
				c-2.172-0.322-3.965-1.661-3.965-1.661l-0.16,0.053c-0.67,4.493,0.973,7.877,4.828,8.451c3.07,0.456,6.197-1.261,6.197-1.261
				l0.16,0.218c0,0-1.982,4.567-8.273,3.629c-5.02-0.747-8.141-5.232-7.322-10.736C114.027,15.71,118.219,10.975,123.686,11.788z
				 M121.322,20.204c1.686,0.251,3.66-0.413,4.006-2.734c0.262-1.76-0.25-3.713-2.385-4.03c-2.66-0.396-4.76,3.925-4.971,5.346
				C117.93,19.086,119.75,19.969,121.322,20.204z"/>
			<path fill="#E11D40" d="M132.725,19.335c0.102-3.558,0.121-6.967,0.078-9.392c-0.088-3.488-0.561-4.259-0.561-4.259l0.119-0.148
				c2.535,0.11,4.871,0.595,4.801,2.941c-0.107,3.823-0.373,7.792-0.488,11.805c-0.098,3.368-0.158,6.813-0.141,10.147
				c0,1.288,0.309,2.509,1.631,2.546c0.758,0.021,1.455-0.489,1.455-0.489l0.146,0.118c0,0-1.012,2.32-4.268,2.226
				c-1.664-0.048-3.383-0.854-3.311-3.39C132.277,28.337,132.6,23.725,132.725,19.335z"/>
			<path fill="#E11D40" d="M142.516,19.716c0.414-3.534,0.41-4.151,0.578-6.572c0.219-3.481-0.182-4.29-0.182-4.29l0.131-0.138
				c2.516,0.334,4.799,1.021,4.523,3.352c-0.445,3.799-0.732,4.954-1.201,8.938c-0.393,3.348-0.592,5.387-0.869,8.708
				c-0.113,1.284,0.084,2.525,1.4,2.68c0.752,0.09,1.492-0.357,1.492-0.357l0.137,0.131c0,0-1.215,2.221-4.447,1.841
				c-1.656-0.192-3.297-1.149-3-3.668C141.439,27.257,142.004,24.079,142.516,19.716z"/>
			<g>
				<g>
					<path fill="#FAA41A" d="M112.668,15.808c-0.074,0-0.148-0.016-0.221-0.049c-0.271-0.122-0.391-0.44-0.268-0.711
						c1.895-4.164,4.764-5.003,4.883-5.038c0.287-0.075,0.582,0.088,0.662,0.375c0.08,0.284-0.086,0.58-0.371,0.66l0,0
						c-0.025,0.008-2.521,0.772-4.195,4.448C113.068,15.691,112.873,15.808,112.668,15.808z"/>
				</g>
			</g>
			
				<line fill="none" stroke="#E11D40" stroke-width="0.9921" stroke-linecap="round" stroke-linejoin="round" stroke-miterlimit="10" x1="148.752" y1="21.091" x2="147.908" y2="26.088"/>
		</g>
	</g>
</g>
</svg>
