<svg xmlns="http://www.w3.org/2000/svg" viewBox="0 0 496.736 496.736"><g fill="#e21c3f"><path d="M410.998 11.299C409.859 4.765 404.175 0 397.535 0H101.101a13.663 13.663 0 00-13.447 11.248L4.184 476.832c-1.653 9.191 4.474 17.979 13.661 19.632 9.053 1.636 17.973-4.344 19.64-13.67l80.497-448.962h55.358l-12.854 179.174c-2.875-.025-5.781.404-8.457 1.932-8.143 4.602-11.002 14.918-6.393 23.053l11.596 20.484-5.336 74.393c3.635-3.782 8.078-6.864 13.381-8.665l4.311-1.46 2.693-37.665 7.187 12.688a16.905 16.905 0 0014.484 8.581h.232c4.477 0 8.689-1.769 11.811-4.815v26.72l-35.285 11.977c-8.639 2.931-13.396 12.183-10.754 20.921l18.568 61.318c2.693 8.879 12.076 14.016 21.096 11.283 8.938-2.71 13.99-12.15 11.283-21.096l-13.828-45.65 33.369-11.324h37.812l31.388 10.654-13.826 45.652c-2.711 8.945 2.346 18.385 11.281 21.094 8.985 2.727 18.403-2.404 21.096-11.282l18.566-61.32c2.645-8.737-2.115-17.987-10.754-20.921l-35.435-12.024v-26.86c3.141 3.146 7.402 5.006 11.963 5.006h.229a16.92 16.92 0 0014.489-8.582l7.365-13.01 2.578 38.002 4.246 1.447c5.301 1.799 9.762 4.88 13.396 8.671l-5.072-74.889 11.316-19.995c4.609-8.137 1.75-18.452-6.393-23.053-2.529-1.438-5.254-1.917-7.978-1.966L324.636 33.832h55.966l78.63 448.896c1.62 9.191 10.225 15.388 19.592 13.744 9.203-1.611 15.348-10.374 13.744-19.574l-81.57-465.599zM302.07 255.244l-12.008-19.905c-2.412-15.065-15.361-26.612-31.122-26.612h-21.31c-16.139 0-29.289 12.118-31.236 27.711l-11.747 19.477-17.987-31.783 13.643-190.299h117.369l12.785 188.912-18.387 32.499z"/><path d="M352.948 365.377l-5.334 17.625c7.119-1.991 12.455-8.251 12.455-16.016 0-5.046-2.313-9.448-5.814-12.546.114 3.611-.199 7.295-1.307 10.937zm-210.484-10.936c-3.502 3.098-5.816 7.5-5.816 12.546 0 7.682 5.22 13.909 12.241 15.974l-5.121-16.916c-1.171-3.874-1.501-7.78-1.304-11.604zm75.541 23.324l1.867 6.137h56.775l2.066-6.805c-4.791-1.627-24.978-8.352-29.619-10.299-4.905 2.312-25.952 9.225-31.089 10.967zm30.362-266.484c-22.384 0-40.538 18.146-40.538 40.529s18.154 40.529 40.538 40.529c22.385 0 40.538-18.146 40.538-40.529s-18.153-40.529-40.538-40.529z"/></g></svg>