<?xml version="1.0" encoding="UTF-8" standalone="no"?>
<svg
   xmlns:dc="http://purl.org/dc/elements/1.1/"
   xmlns:cc="http://creativecommons.org/ns#"
   xmlns:rdf="http://www.w3.org/1999/02/22-rdf-syntax-ns#"
   xmlns:svg="http://www.w3.org/2000/svg"
   xmlns="http://www.w3.org/2000/svg"
   xmlns:sodipodi="http://sodipodi.sourceforge.net/DTD/sodipodi-0.dtd"
   xmlns:inkscape="http://www.inkscape.org/namespaces/inkscape"
   height="512pt"
   viewBox="0 0 512 512"
   width="512pt"
   version="1.1"
   id="svg6"
   sodipodi:docname="logoped-logopedski-tretmani-logoped-borÄa-arrow-top.svg"
   inkscape:version="0.92.4 (5da689c313, 2019-01-14)">
  <metadata
     id="metadata12">
    <rdf:RDF>
      <cc:Work
         rdf:about="">
        <dc:format>image/svg+xml</dc:format>
        <dc:type
           rdf:resource="http://purl.org/dc/dcmitype/StillImage" />
        <dc:title></dc:title>
      </cc:Work>
    </rdf:RDF>
  </metadata>
  <defs
     id="defs10" />
  <sodipodi:namedview
     pagecolor="#ffffff"
     bordercolor="#666666"
     borderopacity="1"
     objecttolerance="10"
     gridtolerance="10"
     guidetolerance="10"
     inkscape:pageopacity="0"
     inkscape:pageshadow="2"
     inkscape:window-width="1366"
     inkscape:window-height="706"
     id="namedview8"
     showgrid="false"
     inkscape:zoom="0.34570313"
     inkscape:cx="341.33333"
     inkscape:cy="341.33333"
     inkscape:window-x="-8"
     inkscape:window-y="-8"
     inkscape:window-maximized="1"
     inkscape:current-layer="svg6" />
  <ellipse
     cx="251.746"
     cy="252.559"
     rx="254.915"
     ry="252.746"
     fill="orange"
     fill-rule="evenodd"
     id="ellipse2"
     style="fill:#e21c3f;fill-opacity:1" />
  <path
     d="m 492.81713,257.2152 c -1.37937,63.15728 -27.72336,122.01117 -74.17743,165.71366 -46.45497,43.7006 -107.46204,67.02386 -171.77893,65.66931 C 182.54387,487.24363 122.61121,461.37333 78.106947,415.75708 33.603672,370.13898 9.853492,310.23008 11.232871,247.0728 12.612278,183.91368 38.956235,125.06163 85.410299,81.359145 131.86531,37.656685 192.87234,14.33528 257.18923,15.689825 c 64.3169,1.354544 124.2496,27.222997 168.75382,72.841101 44.50328,45.618094 68.2535,105.525144 66.87408,168.684274 z M 48.856638,247.86518 C 46.454043,357.87271 135.64196,449.2929 247.66768,451.65221 359.69433,454.01155 452.79077,366.43035 455.19336,256.42282 457.59598,146.41437 368.40898,54.995125 256.38232,52.635789 144.35661,50.276474 51.259262,137.85672 48.856638,247.86518 Z m 205.272102,-92.04485 -132.85875,124.98842 26.03412,26.68572 105.68437,-99.42237 101.24637,103.78043 27.17529,-25.5651 z m 0,0"
     id="path4"
     inkscape:connector-curvature="0"
     style="fill:#ffffff;fill-opacity:1;stroke:#ffffff;stroke-width:0.93229753;stroke-opacity:1" />
</svg>
