<?xml version="1.0" encoding="utf-8"?>
<!-- Generator: Adobe Illustrator 16.0.0, SVG Export Plug-In . SVG Version: 6.00 Build 0)  -->
<!DOCTYPE svg PUBLIC "-//W3C//DTD SVG 1.1//EN" "http://www.w3.org/Graphics/SVG/1.1/DTD/svg11.dtd">
<svg version="1.1" id="Layer_1" xmlns="http://www.w3.org/2000/svg" xmlns:xlink="http://www.w3.org/1999/xlink" x="0px" y="0px"
	 width="152.381px" height="58.957px" viewBox="0 0 152.381 58.957" enable-background="new 0 0 152.381 58.957"
	 xml:space="preserve">
<g>
	<g>
		<g>
			<path fill="#282829" d="M19.812,52.897v-7.54h1.436v7.54H19.812z"/>
			<path fill="#282829" d="M24.02,50.162c0-1.548,1.084-2.86,2.882-2.86c1.81,0,2.895,1.313,2.895,2.86
				c0,1.549-1.085,2.871-2.895,2.871C25.104,53.033,24.02,51.711,24.02,50.162z M28.304,50.162c0-0.848-0.497-1.582-1.402-1.582
				c-0.893,0-1.391,0.734-1.391,1.582c0,0.859,0.498,1.594,1.391,1.594C27.807,51.756,28.304,51.021,28.304,50.162z"/>
			<path fill="#282829" d="M32.458,54.3l0.644-1.03c0.441,0.477,1.029,0.668,1.707,0.668c0.689,0,1.516-0.294,1.516-1.401v-0.533
				c-0.43,0.545-1.019,0.85-1.696,0.85c-1.356,0-2.407-0.949-2.407-2.77c0-1.787,1.028-2.781,2.407-2.781
				c0.656,0,1.254,0.272,1.696,0.836v-0.7h1.435v5.099c0,2.067-1.604,2.577-2.95,2.577C33.881,55.113,33.147,54.897,32.458,54.3z
				 M36.324,50.963v-1.773c-0.249-0.35-0.77-0.609-1.232-0.609c-0.826,0-1.391,0.565-1.391,1.503c0,0.938,0.564,1.504,1.391,1.504
				C35.554,51.587,36.075,51.315,36.324,50.963z"/>
			<path fill="#282829" d="M40.532,50.162c0-1.548,1.086-2.86,2.883-2.86c1.81,0,2.895,1.313,2.895,2.86
				c0,1.549-1.085,2.871-2.895,2.871C41.618,53.033,40.532,51.711,40.532,50.162z M44.816,50.162c0-0.848-0.497-1.582-1.401-1.582
				c-0.893,0-1.39,0.734-1.39,1.582c0,0.859,0.497,1.594,1.39,1.594C44.319,51.756,44.816,51.021,44.816,50.162z"/>
			<path fill="#282829" d="M50.519,52.196v2.781h-1.437v-7.54h1.437v0.689c0.417-0.531,1.018-0.825,1.684-0.825
				c1.402,0,2.42,1.04,2.42,2.86s-1.018,2.871-2.42,2.871C51.559,53.033,50.971,52.762,50.519,52.196z M53.142,50.162
				c0-0.939-0.565-1.582-1.391-1.582c-0.464,0-0.983,0.26-1.232,0.621v1.921c0.237,0.353,0.769,0.634,1.232,0.634
				C52.577,51.756,53.142,51.111,53.142,50.162z"/>
			<path fill="#282829" d="M57.023,50.162c0-1.582,1.177-2.86,2.826-2.86c1.64,0,2.735,1.221,2.735,2.995v0.34h-4.059
				c0.103,0.666,0.645,1.221,1.571,1.221c0.465,0,1.097-0.191,1.447-0.531l0.646,0.949c-0.543,0.498-1.403,0.758-2.25,0.758
				C58.279,53.033,57.023,51.914,57.023,50.162z M59.849,48.478c-0.893,0-1.277,0.622-1.334,1.164h2.69
				C61.161,49.122,60.799,48.478,59.849,48.478z"/>
			<path fill="#282829" d="M69.078,52.897v-0.701c-0.431,0.543-1.018,0.837-1.685,0.837c-1.367,0-2.419-1.04-2.419-2.871
				c0-1.774,1.028-2.86,2.419-2.86c0.645,0,1.254,0.272,1.685,0.836v-2.78h1.446v7.54H69.078z M69.078,51.135v-1.934
				c-0.237-0.361-0.757-0.621-1.232-0.621c-0.825,0-1.391,0.643-1.391,1.582c0,0.949,0.565,1.594,1.391,1.594
				C68.321,51.756,68.84,51.496,69.078,51.135z"/>
			<path fill="#282829" d="M73.174,52.186l0.622-1.04c0.407,0.384,1.21,0.758,1.888,0.758c0.623,0,0.916-0.237,0.916-0.577
				c0-0.892-3.233-0.158-3.233-2.305c0-0.917,0.791-1.72,2.237-1.72c0.916,0,1.651,0.317,2.194,0.746l-0.576,1.018
				c-0.328-0.338-0.95-0.634-1.618-0.634c-0.52,0-0.857,0.227-0.857,0.531c0,0.804,3.243,0.125,3.243,2.33
				c0,1.006-0.859,1.74-2.373,1.74C74.667,53.033,73.75,52.717,73.174,52.186z"/>
			<path fill="#282829" d="M84.278,52.897l-1.447-2.103l-0.656,0.701v1.401h-1.434v-7.54h1.434v4.511l2.068-2.431h1.764l-2.16,2.477
				l2.229,2.983H84.278z"/>
			<path fill="#282829" d="M88.362,45.99c0-0.475,0.385-0.848,0.848-0.848c0.475,0,0.859,0.373,0.859,0.848
				s-0.385,0.858-0.859,0.858C88.747,46.849,88.362,46.465,88.362,45.99z M88.499,52.897v-5.46h1.436v5.46H88.499z"/>
			<path fill="#282829" d="M97.31,50.162c0-1.673,1.221-2.86,2.893-2.86c1.121,0,1.797,0.486,2.16,0.983l-0.939,0.883
				c-0.26-0.385-0.654-0.588-1.152-0.588c-0.869,0-1.482,0.632-1.482,1.582c0,0.949,0.613,1.594,1.482,1.594
				c0.498,0,0.893-0.227,1.152-0.599l0.939,0.881c-0.363,0.498-1.039,0.995-2.16,0.995C98.53,53.033,97.31,51.847,97.31,50.162z"/>
			<path fill="#282829" d="M104.649,50.162c0-1.582,1.178-2.86,2.826-2.86c1.641,0,2.734,1.221,2.734,2.995v0.34h-4.057
				c0.102,0.666,0.643,1.221,1.57,1.221c0.465,0,1.098-0.191,1.447-0.531l0.646,0.949c-0.545,0.498-1.402,0.758-2.25,0.758
				C105.905,53.033,104.649,51.914,104.649,50.162z M107.476,48.478c-0.893,0-1.277,0.622-1.332,1.164h2.689
				C108.786,49.122,108.425,48.478,107.476,48.478z"/>
			<path fill="#282829" d="M116.638,52.897v-3.301c0-0.757-0.396-1.017-1.008-1.017c-0.566,0-0.994,0.315-1.244,0.632v3.686h-1.436
				v-5.46h1.436v0.7c0.352-0.406,1.031-0.836,1.912-0.836c1.211,0,1.787,0.679,1.787,1.741v3.854H116.638z"/>
			<path fill="#282829" d="M121.491,51.529v-2.838h-0.904v-1.254h0.904v-1.491h1.436v1.491h1.107v1.254h-1.107v2.454
				c0,0.351,0.18,0.61,0.498,0.61c0.213,0,0.416-0.08,0.496-0.169l0.307,1.097c-0.215,0.192-0.602,0.35-1.199,0.35
				C122.022,53.033,121.491,52.513,121.491,51.529z"/>
			<path fill="#282829" d="M129.995,52.897v-0.575c-0.375,0.451-1.018,0.711-1.732,0.711c-0.869,0-1.887-0.588-1.887-1.81
				c0-1.288,1.018-1.762,1.887-1.762c0.736,0,1.369,0.236,1.732,0.666v-0.688c0-0.554-0.477-0.917-1.199-0.917
				c-0.576,0-1.119,0.227-1.572,0.646l-0.564-1.008c0.668-0.599,1.527-0.858,2.385-0.858c1.256,0,2.396,0.498,2.396,2.068v3.527
				H129.995z M129.995,51.587v-0.679c-0.238-0.316-0.691-0.485-1.154-0.485c-0.564,0-1.029,0.305-1.029,0.825
				c0,0.52,0.465,0.813,1.029,0.813C129.304,52.062,129.757,51.903,129.995,51.587z"/>
			<path fill="#282829" d="M134.554,52.897v-5.46h1.436v0.735c0.395-0.475,1.063-0.871,1.742-0.871v1.401
				c-0.104-0.021-0.227-0.034-0.396-0.034c-0.475,0-1.107,0.272-1.346,0.623v3.605H134.554z"/>
		</g>
	</g>
	<g>
		<path fill="#4A94D0" d="M88.116,21.806c0-6.594-2.922-13.424-12.479-14.086c-0.192-0.015-0.38,0.156-0.393,0.383
			c-0.014,0.225,0.141,0.42,0.344,0.435c4.897,0.354,6.618,6.68,6.618,13.065c0,1.246-0.168,1.863-0.404,3.083
			c-0.24,1.232-0.627,2.426-1.137,3.569c-0.492,1.105-1.08,2.178-1.795,3.15c-0.645,0.878-1.408,1.667-2.331,2.232
			c-1.407,0.861-3.131,1.258-4.735,0.813c-0.477-0.131-0.963-0.305-1.411-0.519c-1.005-0.477-1.834-1.238-2.506-2.132
			c-0.737-0.979-1.314-2.085-1.792-3.216c-0.498-1.177-0.878-2.404-1.117-3.665c-0.246-1.304-0.337-2.628-0.399-3.951
			c-0.007-0.162-0.021-0.324-0.021-0.484c0-6.559,3.168-14.029,8.749-14.393c0.231-0.015,0.406-0.215,0.392-0.445
			c-0.015-0.231-0.229-0.409-0.448-0.393c-10.89,0.679-15.428,9.515-15.428,16.287c0,7.367,4.992,15.295,15.53,15.319
			C82.575,36.833,88.116,28.978,88.116,21.806z"/>
	</g>
	<path fill="#4A94D0" d="M4.32,17.627c0-3.561-0.076-6.968-0.189-9.392c-0.19-3.482-0.683-4.24-0.683-4.24l0.114-0.151
		c2.537,0.038,4.885,0.455,4.885,2.802c0,3.824-0.152,7.801-0.152,11.814c0,3.368,0.039,6.814,0.152,10.146
		c0.038,1.287,0.378,2.5,1.704,2.5c0.757,0,1.438-0.53,1.438-0.53l0.151,0.113c0,0-0.947,2.347-4.204,2.347
		c-1.666,0-3.406-0.757-3.406-3.294C4.13,26.638,4.32,22.019,4.32,17.627z"/>
	<path fill="#4A94D0" d="M23.489,12.968c6.361,0,9.618,4.43,9.618,9.012c0,5.642-3.483,11.056-9.996,11.056
		c-6.36,0-9.617-4.657-9.617-9.578C13.494,18.043,16.939,12.968,23.489,12.968z M23.489,31.294c3.37,0,4.998-4.316,4.998-8.633
		c0-3.976-1.779-7.95-5.415-7.95c-3.369,0-4.959,4.051-4.959,8.102C18.113,27.09,19.892,31.294,23.489,31.294z"/>
	<path fill="#4A94D0" d="M39.561,32.521c0.113,1.818,1.25,5.149,5.452,5.149c2.234,0,4.619-0.984,4.619-3.144
		c0-3.294-10.525-1.06-10.525-6.588c0-1.552,1.06-2.802,1.78-3.444c-3.029-0.796-4.62-2.841-4.62-6.021
		c0-4.089,3.521-7.156,8.444-7.156c1.476,0,2.801,0.227,3.861,0.605c1.969-0.075,2.499-1.816,2.688-4.05
		C52.586,8.025,54.1,7.986,54.1,9.463c0,1.894-2.045,2.954-3.861,3.37c1.438,1.098,2.195,2.726,2.195,4.847
		c0,4.126-3.521,7.155-8.443,7.155c-0.644,0-1.211,0-1.741-0.075c-0.341,0.491-0.568,1.06-0.568,1.324
		c0,2.841,11.474,0.454,11.474,7.006c0,3.597-3.787,6.247-9.051,6.247c-5.11,0-7.762-2.992-7.762-5.111
		C36.342,32.483,38.274,32.521,39.561,32.521z M48.194,18.475c0-2.916-1.136-5.451-4.014-5.451c-2.082,0-3.71,2.118-3.71,4.656
		c0,2.915,1.135,5.453,4.014,5.453C46.604,23.133,48.194,21.012,48.194,18.475z"/>
	<g>
		<path fill="#4A94D0" d="M58.03,12.946c-0.085,0-0.172-0.017-0.254-0.056c-0.311-0.141-0.447-0.506-0.307-0.816
			c2.172-4.772,5.46-5.736,5.599-5.775c0.329-0.087,0.667,0.102,0.759,0.429s-0.099,0.667-0.425,0.759l0,0
			c-0.029,0.009-2.893,0.883-4.811,5.099C58.488,12.812,58.264,12.946,58.03,12.946z"/>
	</g>
	<g>
		<path fill="#4A94D0" d="M83.343,37.345c-0.268,0-0.516-0.177-0.592-0.447c-0.094-0.326,0.094-0.666,0.418-0.762
			c0.047-0.015,2.889-0.92,4.764-5.141c0.139-0.31,0.502-0.453,0.814-0.313c0.311,0.139,0.451,0.503,0.313,0.814
			c-2.129,4.791-5.408,5.783-5.547,5.824C83.456,37.335,83.397,37.345,83.343,37.345z"/>
	</g>
	<g>
		<g>
			
				<ellipse transform="matrix(0.9479 0.3186 -0.3186 0.9479 13.2582 -20.1268)" fill="#282829" cx="68.156" cy="30.467" rx="1.916" ry="1.946"/>
		</g>
	</g>
	<g>
		<g>
			
				<ellipse transform="matrix(0.7922 0.6103 -0.6103 0.7922 32.5129 -35.8879)" fill="#FFFFFF" cx="68.955" cy="29.798" rx="0.652" ry="0.758"/>
		</g>
	</g>
	<g>
		<g>
			<path fill="#FAA41A" d="M78.247,29.838c-0.635,0-1.363-0.125-1.997-0.241c-2.278-0.419-4.674-1.028-6.931-1.768l-0.127-0.04
				l-0.244-0.085c-2.248-0.776-4.527-1.737-6.591-2.778c-0.735-0.373-2.265-1.146-2.465-1.869c-0.032-0.114-0.052-0.305,0.148-0.621
				c0.412-0.648,1.317-0.993,2.275-1.359c0.498-0.189,1.013-0.385,1.488-0.638c1.545-0.822,2.52-2.543,3.551-4.366
				c0.931-1.643,1.87-3.902,3.896-4.39c1.64-0.396,3.764-0.227,5.085,0.922c0.335,0.291,0.653,0.679,0.862,1.071
				c0.42,0.791,0.672,1.632,0.682,2.53c0.016,1.115-0.117,2.213-0.266,3.315c-0.279,2.075-0.543,4.037,0.191,5.626
				c0.227,0.488,0.518,0.957,0.801,1.409c0.543,0.871,1.055,1.691,0.99,2.455C79.567,29.36,79.526,29.838,78.247,29.838z"/>
		</g>
	</g>
	<path fill="#F7941E" d="M72.4,28.24l-0.126-0.04l-0.244-0.084c-2.248-0.777-4.527-1.738-6.591-2.78
		c-0.735-0.371-2.265-1.145-2.466-1.869c-0.031-0.114-0.05-0.303,0.15-0.621c0.41-0.647,1.315-0.992,2.274-1.357
		c0.498-0.19,1.012-0.387,1.487-0.639c1.546-0.822,2.521-2.544,3.552-4.367c0.93-1.642,1.87-3.902,3.896-4.389
		c0.295-0.072,0.61-0.118,0.931-0.149c-1.241-0.534-2.767-0.562-4.013-0.262c-2.025,0.487-2.965,2.747-3.896,4.39
		c-1.031,1.823-2.006,3.544-3.551,4.366c-0.476,0.253-0.99,0.448-1.488,0.638c-0.958,0.366-1.863,0.711-2.275,1.359
		c-0.2,0.316-0.181,0.507-0.148,0.621c0.2,0.724,1.729,1.496,2.465,1.869c2.063,1.041,4.343,2.002,6.591,2.778l0.244,0.085
		l0.127,0.04c2.257,0.739,4.653,1.349,6.931,1.768c0.634,0.116,1.362,0.241,1.997,0.241c0.074,0,0.129-0.008,0.193-0.011
		C76.436,29.422,74.367,28.884,72.4,28.24z"/>
	<g>
		<g>
			<g>
				<path fill="#282829" d="M80.087,25.633c-0.264-0.426-0.516-0.83-0.695-1.218c-0.521-1.128-0.291-2.844-0.047-4.66
					c0.473-3.5,1.059-7.858-4.058-9.398c-0.052-0.022-0.109-0.042-0.18-0.065l0.003-0.004c-0.89-0.329-1.993-0.576-2.777-0.576
					c-3.385,0-5.038,2.923-6.498,5.501c-0.902,1.595-1.754,3.101-2.851,3.684c-0.38,0.202-0.822,0.37-1.29,0.549
					c-1.129,0.43-2.406,0.917-3.129,2.058c-0.526,0.833-0.484,1.559-0.357,2.021c0.375,1.355,1.866,2.207,3.362,2.962
					c1.959,0.989,4.105,1.907,6.24,2.671l0.768,0.271l0.979,0.337l0.009-0.022c2.095,0.65,4.279,1.191,6.368,1.573
					c0.71,0.131,1.532,0.271,2.313,0.271c2.51,0,3.014-1.519,3.09-2.424C81.45,27.818,80.728,26.656,80.087,25.633z M78.247,29.838
					c-0.635,0-1.363-0.125-1.997-0.241c-2.278-0.419-4.674-1.028-6.931-1.768l-0.127-0.04l-0.244-0.085
					c-2.248-0.776-4.527-1.737-6.591-2.778c-0.735-0.373-2.265-1.146-2.465-1.869c-0.032-0.114-0.052-0.305,0.148-0.621
					c0.412-0.648,1.317-0.993,2.275-1.359c0.498-0.189,1.013-0.385,1.488-0.638c1.545-0.822,2.52-2.543,3.551-4.366
					c0.931-1.643,1.87-3.902,3.896-4.39c1.64-0.396,3.764-0.227,5.085,0.922c0.335,0.291,0.653,0.679,0.862,1.071
					c0.42,0.791,0.672,1.632,0.682,2.53c0.016,1.115-0.117,2.213-0.266,3.315c-0.279,2.075-0.543,4.037,0.191,5.626
					c0.227,0.488,0.518,0.957,0.801,1.409c0.543,0.871,1.055,1.691,0.99,2.455C79.567,29.36,79.526,29.838,78.247,29.838z"/>
			</g>
		</g>
		<g>
			<path fill="#282829" d="M72.11,23.978c-5.52-1.55-6.935-2.895-6.97-2.928c-0.231-0.24-0.618-0.252-0.864-0.023
				c-0.249,0.232-0.264,0.622-0.031,0.871c0.149,0.159,1.626,1.608,7.532,3.267c0.056,0.015,0.112,0.022,0.167,0.022
				c0.27,0,0.517-0.177,0.594-0.449C72.629,24.408,72.438,24.069,72.11,23.978z"/>
		</g>
		<g>
			<g>
				<path fill="#282829" d="M75.395,10.521c-0.148,0-0.296-0.023-0.438-0.072c-0.729-0.244-1.122-1.042-0.874-1.78
					c0.244-0.721,1.057-1.131,1.773-0.892c0.727,0.245,1.118,1.044,0.872,1.781C76.533,10.135,75.998,10.521,75.395,10.521z
					 M75.416,8.579c-0.228,0-0.431,0.147-0.506,0.369c-0.094,0.279,0.052,0.581,0.325,0.673c0.269,0.09,0.572-0.067,0.664-0.342
					C75.992,9,75.848,8.697,75.576,8.605C75.524,8.587,75.469,8.579,75.416,8.579z"/>
			</g>
		</g>
	</g>
	<g>
		<g>
			<path fill="#4A94D0" d="M72.333,40.668c-2.982,0-5.977-0.723-8.614-2.137c-3.979-2.136-6.72-5.545-7.722-9.604
				c-0.082-0.33,0.121-0.664,0.451-0.745c0.328-0.084,0.664,0.121,0.745,0.45c0.917,3.716,3.441,6.843,7.107,8.811
				c4.136,2.22,9.212,2.611,13.581,1.046c0.318-0.116,0.672,0.052,0.789,0.373c0.115,0.32-0.051,0.673-0.373,0.788
				C76.395,40.332,74.367,40.668,72.333,40.668z"/>
		</g>
		<g>
			<path fill="#4A94D0" d="M55.409,29.37c-0.105,0-0.213-0.026-0.311-0.084c-0.294-0.171-0.393-0.55-0.221-0.843
				c0.308-0.525,1.26-1.421,2.664-1.047c0.33,0.086,0.526,0.423,0.439,0.753c-0.086,0.327-0.422,0.525-0.752,0.438
				c-0.865-0.221-1.271,0.451-1.287,0.479C55.827,29.262,55.621,29.37,55.409,29.37z"/>
		</g>
		<g>
			<path fill="#4A94D0" d="M78.876,40.383c-0.053,0-0.105-0.008-0.158-0.021c-0.328-0.086-0.525-0.422-0.439-0.752
				c0.227-0.864-0.449-1.272-0.479-1.288c-0.293-0.172-0.393-0.55-0.221-0.843c0.172-0.294,0.551-0.394,0.844-0.222
				c0.523,0.309,1.416,1.26,1.047,2.665C79.397,40.199,79.149,40.383,78.876,40.383z"/>
		</g>
	</g>
	<g>
		<path fill="#14AA5E" d="M93.374,24.36c-0.238-2.791-0.531-5.731-0.771-8.521c-0.301-3.471-0.947-10.522-1.768-11.211l0.102-0.161
			c4.756-0.372,5.088,1.271,5.475,5.761c0.254,2.942,0.145,6.067,0.145,6.067l0.115,0.029c0,0,1.215-3.108,5.816-3.506
			c4.301-0.371,7.27,3.212,7.684,8.003c0.566,6.563-2.602,11.7-10.107,12.349c-3.133,0.27-6.063-0.655-6.258-2.918
			C93.628,28.176,93.536,26.247,93.374,24.36z M105.718,22.079c-0.297-3.471-2.078-6.928-4.682-6.702
			c-2.264,0.193-3.814,2.037-3.908,4.936c-0.047,1.638,0.107,3.41,0.258,5.184c0.285,3.281,0.641,6.101,3.055,5.894
			C104.515,31.039,106.095,26.417,105.718,22.079z"/>
		<path fill="#FAA41A" d="M123.866,11.788c4.943,0.736,6.471,3.835,6.092,6.383c-0.557,3.745-4.689,4.507-7.984,4.016
			c-2.172-0.322-3.965-1.661-3.965-1.661l-0.16,0.053c-0.67,4.493,0.973,7.877,4.828,8.451c3.07,0.456,6.197-1.261,6.197-1.261
			l0.16,0.218c0,0-1.982,4.567-8.273,3.629c-5.02-0.747-8.141-5.232-7.322-10.736C114.208,15.71,118.399,10.975,123.866,11.788z
			 M121.503,20.204c1.686,0.251,3.66-0.413,4.006-2.734c0.262-1.76-0.25-3.713-2.385-4.03c-2.66-0.396-4.76,3.925-4.971,5.346
			C118.11,19.086,119.931,19.969,121.503,20.204z"/>
		<path fill="#E11D40" d="M132.905,19.335c0.102-3.558,0.121-6.967,0.078-9.392c-0.088-3.488-0.561-4.259-0.561-4.259l0.119-0.148
			c2.535,0.11,4.871,0.595,4.801,2.941c-0.107,3.823-0.373,7.792-0.488,11.805c-0.098,3.368-0.158,6.813-0.141,10.147
			c0,1.288,0.309,2.509,1.631,2.546c0.758,0.021,1.455-0.489,1.455-0.489l0.146,0.118c0,0-1.012,2.32-4.268,2.226
			c-1.664-0.048-3.383-0.854-3.311-3.39C132.458,28.337,132.78,23.725,132.905,19.335z"/>
		<path fill="#E11D40" d="M142.696,19.716c0.414-3.534,0.41-4.151,0.578-6.572c0.219-3.481-0.182-4.29-0.182-4.29l0.131-0.138
			c2.516,0.334,4.799,1.021,4.523,3.352c-0.445,3.799-0.732,4.954-1.201,8.938c-0.393,3.348-0.592,5.387-0.869,8.708
			c-0.113,1.284,0.084,2.525,1.4,2.68c0.752,0.09,1.492-0.357,1.492-0.357l0.137,0.131c0,0-1.215,2.221-4.447,1.841
			c-1.656-0.192-3.297-1.149-3-3.668C141.62,27.257,142.185,24.079,142.696,19.716z"/>
		<g>
			<g>
				<path fill="#FAA41A" d="M112.849,15.808c-0.074,0-0.148-0.016-0.221-0.049c-0.271-0.122-0.391-0.44-0.268-0.711
					c1.895-4.164,4.764-5.003,4.883-5.038c0.287-0.075,0.582,0.088,0.662,0.375c0.08,0.284-0.086,0.58-0.371,0.66l0,0
					c-0.025,0.008-2.521,0.772-4.195,4.448C113.249,15.691,113.054,15.808,112.849,15.808z"/>
			</g>
		</g>
		
			<line fill="none" stroke="#E11D40" stroke-width="0.9921" stroke-linecap="round" stroke-linejoin="round" stroke-miterlimit="10" x1="148.933" y1="21.091" x2="148.089" y2="26.088"/>
	</g>
</g>
</svg>
