<svg xmlns="http://www.w3.org/2000/svg" viewBox="0 0 493.927 493.927"><path d="M38.758 234.499c16.794-4.117 27.073-21.056 22.956-37.851-4.108-16.801-21.048-27.074-37.842-22.965-16.8 4.118-27.081 21.057-22.965 37.851 4.118 16.803 21.057 27.073 37.851 22.965zm361.319-88.475c16.803-4.109 27.073-21.057 22.957-37.842-4.11-16.802-21.049-27.074-37.835-22.965-16.809 4.117-27.073 21.048-22.964 37.85 4.116 16.794 21.056 27.074 37.842 22.957zm93.488 110.869c-1.646-6.725-8.503-10.825-15.138-9.188l-19.46 4.77c.327-1.818.205-3.71-.098-5.618-.978-4.075-18.383-76.988-19.817-80.91-2.593-11.021-16.6-18.929-29.381-15.823-12.457 3.057-20.307 14.942-18.773 27.366l-38.96 37.369c-6.651 6.384-6.872 16.949-.489 23.609 1.06 1.1 2.365 1.736 3.62 2.478-5.25 2.005-8.421 7.484-7.044 13.084l5.91 24.155-84.064 20.576c-5.333-5.698-12.865-9.31-21.285-9.31-13.41 0-24.58 9.074-28.018 21.384l-79.826 19.549-5.919-24.163c-1.36-5.528-6.563-8.951-12.064-8.365.725-1.199 1.435-2.421 1.851-3.831 2.584-8.853-2.495-18.122-11.34-20.714l-51.831-15.146c-4.387-11.732-16.786-18.677-29.3-15.596-12.627 3.09-21.528 16.532-18.749 27.571.538 3.994 19.809 80.942 19.809 80.942.611 1.826 1.37 3.563 2.504 5.014l-19.445 4.762c-6.716 1.646-10.833 8.421-9.185 15.138 1.654 6.767 8.486 10.825 15.138 9.187l64.491-15.79-3.146 19.916c-1.435 9.114 4.776 17.657 13.884 19.1 9.179 1.434 17.673-4.827 19.1-13.882l5.331-33.742 102.953-25.207a29.409 29.409 0 008.169 7.728l-24.961 39.448a17.502 17.502 0 0014.787 26.862h51.538a17.5 17.5 0 0015.327-9.058 17.508 17.508 0 00-.539-17.804l-24.961-39.448c7.076-4.493 12.008-11.927 13.215-20.601l107.331-26.273 20.307 27.456c5.486 7.409 15.938 8.967 23.355 3.498 7.411-5.486 8.975-15.946 3.497-23.357l-11.992-16.206 64.483-15.791c6.716-1.648 10.831-8.423 9.185-15.139zm-93.741-41.691l6.375 26.013-28.377 6.954a16.61 16.61 0 00-7.061 3.71l-.789-3.227c-.563-2.308-1.932-4.118-3.58-5.593 3.139-.563 6.196-1.729 8.667-4.101l24.765-23.756zm-291.235 90.841c1.647 0 3.245-.311 4.784-.775-.701 1.988-1.043 4.124-.496 6.334l.79 3.219a16.672 16.672 0 00-7.972-.023l-28.386 6.946-6.368-26.014c3.898 1.14 33.915 10.313 37.648 10.313z" fill="#e21c3f"/></svg>