<svg xmlns="http://www.w3.org/2000/svg" width="34" height="34"><path d="M17 0C7.611 0 0 7.61 0 17c0 9.391 7.611 17 17 17s17-7.609 17-17c0-9.39-7.611-17-17-17zm11.211 17.595c-1.795 3.79-6.324 5.89-10.521 4.636.346 2.484-.535 5.512-3.253 6.435-1.299.44-2.715.242-3.945-.292-1.342-.58-.622-2.862-.734-4.014.818.172 1.604 1.002 2.489.607.765-.338.784-1.979.812-2.662.096-2.295-.076-4.619-.076-6.917v-3.256c0-.391.021-.332.381-.395.964-.165 1.978-.113 2.947-.038.276.022.551.049.827.082.35.044.309-.035.309.385v6.173c0 .525.433.509.92.622.287.066.578.117.871.146a5.742 5.742 0 001.582-.056 4.894 4.894 0 002.399-1.141c1.271-1.128 1.571-2.852 1.112-4.409-1.107-3.764-6.064-5.286-9.724-4.403-3.93.948-7.069 5.203-4.106 8.637-.886.757-1.649 1.656-2.685 2.24a4.702 4.702 0 01-.788.361 5.319 5.319 0 01-.424-.499 6.36 6.36 0 01-.689-1.146c-.854-1.806-.99-3.915-.633-5.851.58-3.148 2.662-5.484 5.725-6.699 5.102-2.019 12.416-1.192 16.021 3.105 1.921 2.297 2.46 5.65 1.183 8.349z"/></svg>