<svg xmlns="http://www.w3.org/2000/svg" viewBox="0 0 497.603 497.603"><path d="M57.863 360.596c-2.742 2.426-4.543 5.857-4.543 9.791 0 6.002 4.071 10.86 9.555 12.475l-3.989-13.197c-.926-3.016-1.185-6.076-1.023-9.069zm83.25 9.637c-3.374 1.654-20.553 7.301-24.284 8.565l1.46 4.794h44.317l1.606-5.321c-3.731-1.267-19.708-6.587-23.099-8.038zm81.061-1.12l-4.169 13.78c5.579-1.547 9.749-6.44 9.749-12.506 0-3.941-1.818-7.381-4.559-9.806.098 2.83-.162 5.693-1.021 8.532zm-81.645-135.07c17.488 0 31.664-14.162 31.664-31.633 0-17.486-14.176-31.657-31.664-31.657-17.471 0-31.649 14.171-31.649 31.657.001 17.471 14.179 31.633 31.649 31.633zm216.886 136.181c-5.03 2.468-13.433 5.069-18.77 6.879l1.964 6.488h32.767l2.093-6.91c-5.37-1.826-12.848-4.192-18.054-6.457zm-.357-105.579c13.593 0 24.593-11.006 24.593-24.583 0-13.578-11-24.576-24.593-24.576-13.578 0-24.576 10.998-24.576 24.576-.001 13.577 10.998 24.583 24.576 24.583z"/><path d="M481.106 74.527H16.482C7.381 74.527 0 81.907 0 91.015c0 9.101 7.381 16.489 16.482 16.489h65.696l-10.235 142.68c-2.254-.025-4.511.315-6.602 1.492-6.359 3.592-8.581 11.647-4.996 17.998l9.067 16.002-4.169 58.059c2.822-2.943 6.31-5.346 10.43-6.749l3.359-1.143 2.107-29.393 5.613 9.895c4.267 7.567 14.097 9.311 20.78 2.264v21.518l-27.626 9.377c-6.748 2.287-10.447 9.513-8.387 16.326l14.503 47.87c2.076 6.862 9.392 10.942 16.466 8.81 6.975-2.125 10.916-9.499 8.808-16.475l-10.804-35.639 26.068-8.84h29.508l24.494 8.32-10.787 35.639c-2.109 6.983 1.832 14.357 8.807 16.466 6.913 2.101 14.342-1.784 16.467-8.815l14.485-47.872c2.06-6.821-1.655-14.04-8.387-16.327l-27.593-9.359v-21.502c6.698 7.024 16.447 5.297 20.764-2.288l5.759-10.146 2.013 29.669 3.291 1.12c4.137 1.411 7.625 3.811 10.463 6.771l-3.957-58.454 8.842-15.621c3.585-6.353 1.346-14.413-4.997-18.007-1.98-1.111-4.105-1.476-6.23-1.516l-9.602-142.13h98.855c-3.568 53.257-13.172 196.602-16.74 249.89-6.764.552-12.166 6.066-12.166 12.993 0 7.292 5.905 13.204 13.204 13.204h14.681l-4.121-13.601c-1.314-4.398-.811-8.785.648-12.808.374-1.071.65-2.135 1.219-3.123l3.179-47.399 17.374 23.034c3.682 4.907 10.56 5.751 15.377.706v16.65l-21.461 7.275c-5.224 1.785-8.109 7.39-6.52 12.688l11.257 37.185c1.637 5.371 7.331 8.502 12.798 6.846 5.42-1.638 8.485-7.371 6.846-12.79l-8.387-27.683 20.246-6.87h22.937l19.029 6.457-8.387 27.69c-1.64 5.418 1.41 11.153 6.846 12.799a10.281 10.281 0 0012.799-6.846l11.257-37.189c1.623-5.294-1.281-10.916-6.521-12.691l-21.444-7.285v-16.627c4.964 5.104 11.728 4.089 15.361-.681l17.635-23.19 3.017 47.603c.584 1.08.859 2.272 1.249 3.44 1.331 3.925 1.817 8.159.534 12.399l-4.248 14.009h14.824c7.285 0 13.206-5.912 13.206-13.204 0-6.901-5.37-12.401-12.134-12.985-11.21-177.556 1.719 26.936-15.783-249.897h64.74c9.117 0 16.497-7.389 16.497-16.489 0-9.107-7.38-16.487-16.497-16.487zM196.818 257.75l-14.356 25.395-9.294-15.385c-1.817-11.834-11.957-20.927-24.301-20.927h-16.645c-12.539 0-22.79 9.4-24.365 21.51l-9.246 15.323-14.047-24.828 10.835-151.334h91.265l10.154 150.246zm217.047 19.427c-1.62.681-3.146 1.62-4.281 3.121l-18.689 24.576-8.921-14.825c-1.784-8.753-9.167-15.469-18.46-15.469h-12.913c-9.508 0-17.034 7.025-18.559 16.094l-8.775 14.549-18.185-24.138c-1.201-1.573-2.79-2.538-4.51-3.196l11.386-170.385h91.185l10.722 169.673z"/></svg>