<svg xmlns="http://www.w3.org/2000/svg" height="512pt" viewBox="-11 0 511 512" width="512pt"><path d="M462.05 383.09c-22.741-14.61-53.179-11.438-75.866 7.328l-7.485-4.805a120.634 120.634 0 005.438-15.562c26.398-6.637 43.89-20.567 49.488-39.547v.004c5.117-17.348.402-33.7-4.453-44.356-10.828-23.812-30.606-44.965-60.274-64.437 18.86-20.293 28.668-46.356 28.668-76.867 0-19.246-3.87-37.813-11.523-55.325 7.77-1.996 15.289-4.675 21.816-7.808 11.375-5.465 18.555-11.707 21.329-18.555 3.28-8.098 1.69-23.394-13.59-39.851-6.512-7.016-14.114-12.43-21.98-15.66-9.442-3.876-19.032-4.446-27.74-1.649-10.921 3.512-21.444 11.89-29.25 23.047C310.302 10.262 278.079 0 244.98 0c-33.101 0-65.324 10.262-91.652 29.047C145.523 17.89 135 9.512 124.074 6c-8.707-2.797-18.297-2.227-27.734 1.648-7.867 3.23-15.469 8.645-21.98 15.66C59.077 39.767 57.487 55.063 60.77 63.16c2.777 6.848 9.953 13.09 21.332 18.555 6.527 3.133 14.046 5.812 21.82 7.808a138.214 138.214 0 00-7.438 21.895 7.499 7.499 0 005.473 9.086c4.016 1 8.086-1.45 9.086-5.473a123.99 123.99 0 0110.371-27.351 7.505 7.505 0 00.082-6.778 7.511 7.511 0 00-5.414-4.074c-21.336-3.805-38.945-13.226-41.41-19.3-1.695-4.188 1.906-14.563 10.68-24.012 8.367-9.012 21.726-17.22 34.136-13.235 9.617 3.09 19.028 11.785 25.176 23.262a7.5 7.5 0 0011.305 2.309C180.777 25.957 212.39 15 244.98 15c32.586 0 64.2 10.957 89.012 30.855a7.49 7.49 0 006.196 1.497 7.495 7.495 0 005.109-3.809c6.148-11.473 15.558-20.172 25.172-23.262 12.414-3.984 25.773 4.223 34.136 13.235 8.778 9.453 12.38 19.824 10.68 24.011-2.46 6.075-20.07 15.496-41.406 19.305a7.497 7.497 0 00-5.336 10.844c9.305 17.879 14.023 37.113 14.023 57.172 0 29.402-10.464 54.047-30.507 72.37-.082.071-.168.141-.25.22-4.016 3.66-8.47 7.097-13.243 10.21-.074.047-.144.098-.218.149-.29.191-.582.379-.875.566a68.92 68.92 0 00-16.41-6.652c-27.82-7.332-59.532 4.18-76.083 26.55-16.542-22.366-48.261-33.882-76.082-26.55a68.92 68.92 0 00-16.41 6.652c-.293-.183-.582-.37-.87-.558a4.647 4.647 0 00-.227-.157c-4.77-3.117-9.227-6.55-13.243-10.21a5.25 5.25 0 00-.246-.215c-20.043-18.325-30.507-42.97-30.507-72.375a7.5 7.5 0 10-15 0c0 30.515 9.804 56.578 28.668 76.87-29.696 19.497-49.454 40.634-60.278 64.43-4.855 10.664-9.57 27.016-4.45 44.36 5.595 18.976 23.09 32.906 49.485 39.543a120.655 120.655 0 005.442 15.562l-7.485 4.809c-22.687-18.77-53.129-21.938-75.87-7.332-29.5 18.95-36.247 61.23-15.04 94.25C26.945 499.238 50.133 512 73.191 512c5.774 0 11.504-.805 17.043-2.457.02-.004.04-.012.059-.016a16.2 16.2 0 00.227-.07l.23-.07.082-.024a57.156 57.156 0 0014.004-6.52l75.516-48.515c40.535 18.438 88.714 18.438 129.253 0l75.516 48.516a57.113 57.113 0 0014.445 6.652h.004c.149.047.297.09.446.137.125.035.254.07.379.11l.05.01c5.313 1.513 10.797 2.247 16.32 2.247 23.247 0 46.352-12.922 60.325-34.664 21.21-33.02 14.465-75.3-15.04-94.246zm-46.53-90.727c3.796 8.34 7.527 20.989 3.718 33.899h-.004c-5.777 19.597-29.3 27.316-42.812 30.176-26.211 5.55-70.356 3.273-74.543-23.06-1.742-10.925 6.633-21.839 16.226-26.46 15.235-7.332 42.653-9.41 60.387.016a7.5 7.5 0 0010.145-3.106c1.941-3.656.554-8.2-3.106-10.14a59.148 59.148 0 00-5.449-2.551c-6.152-19.254-15.379-38.196-26.957-55.352a122.6 122.6 0 004.488-3.5c28.965 18.457 47.934 38.145 57.907 60.078zm-242.801-56.148c23.886-6.297 52.457 5.566 63.676 26.433a9.723 9.723 0 0017.16.016c11.226-20.883 39.797-32.746 63.687-26.45 12.785 3.364 23.63 11.005 31.36 22.099 5.507 7.902 9.378 17.535 11.253 27.8-17.566-1.988-35.988 1.383-48.257 7.285-14.434 6.954-27.493 23.727-24.532 42.336 2.79 17.543 16.235 29.692 37.961 35.067-29.101 29.39-68.433 56.758-80.047 64.613-11.62-7.86-50.945-35.223-80.046-64.613 21.726-5.375 35.171-17.524 37.96-35.067 2.961-18.609-10.101-35.382-24.535-42.336-12.324-5.93-30.761-9.261-48.257-7.289 1.878-10.265 5.75-19.894 11.253-27.793 7.735-11.097 18.575-18.738 31.364-22.101zm-102 90.047c-3.809-12.907-.078-25.559 3.718-33.903 9.973-21.93 28.942-41.617 57.903-60.074a121.435 121.435 0 004.484 3.496c-11.57 17.133-20.797 36.074-26.957 55.356-1.86.761-3.68 1.61-5.445 2.547a7.503 7.503 0 00-3.102 10.144 7.496 7.496 0 0010.14 3.102c17.74-9.426 45.157-7.344 60.388-.012 9.207 4.434 18.02 15.215 16.23 26.465-4.191 26.308-48.46 28.578-74.547 23.05-13.508-2.855-37.031-10.57-42.812-30.171zm20.824 166.797a42.664 42.664 0 01-9.398 3.066c-.024.004-.043.012-.067.016a14.6 14.6 0 00-.402.078l-.184.035-.21.035c-.141.027-.282.05-.423.078l-.03.004c-18.349 3.14-38.583-5.262-51.837-22.226-10.14-20.063-5.781-42.81 10.266-53.118 17.457-11.218 42.484-3.496 55.789 17.215 12.125 18.875 10.57 42.246-3.504 54.817zm215.316-54.024c-18.84 9.242-40.238 14.125-61.879 14.125-21.644 0-43.042-4.883-61.882-14.125a7.51 7.51 0 00-7.356.426l-58.844 37.805c3.254-15.137.313-32.278-9.23-47.133-17.773-27.664-52.102-37.414-76.52-21.727a47.452 47.452 0 00-13.91 13.723c2.88-10.836 9.23-20.285 18.774-26.418 18.394-11.813 43.808-7.906 61.808 9.492a7.502 7.502 0 009.266.918l17.77-11.41a7.495 7.495 0 002.667-9.64 106.209 106.209 0 01-5.054-12c7.969.925 15.75 1.117 24.37.495 31.204 34.059 77.68 66.211 91.481 75.45a11.973 11.973 0 006.66 2.03c2.32 0 4.637-.679 6.665-2.03 13.796-9.239 60.273-41.391 91.476-75.45 8.613.622 16.395.43 24.371-.496a106.93 106.93 0 01-5.055 12 7.499 7.499 0 002.668 9.64l17.77 11.411a7.503 7.503 0 009.266-.918c18-17.398 43.414-21.305 61.804-9.492 9.547 6.133 15.899 15.582 18.778 26.422a47.417 47.417 0 00-13.91-13.727 7.502 7.502 0 00-8.11 12.621c16.047 10.309 20.402 33.055 10.266 53.118-13.32 17.046-33.918 25.687-52.735 22.062a7.13 7.13 0 01-.277-.055 4.178 4.178 0 01-.215-.043c-.12-.023-.242-.05-.363-.074l-.047-.012a42.838 42.838 0 01-8.918-2.964c-14.074-12.57-15.629-35.946-3.504-54.817 6.977-10.855 17.582-18.629 29.11-21.328a7.505 7.505 0 005.593-9.012 7.503 7.503 0 00-9.015-5.593c-15.286 3.582-29.246 13.722-38.305 27.824-9.543 14.855-12.484 31.996-9.234 47.133l-58.844-37.805a7.5 7.5 0 00-7.356-.426zm0 0" stroke="orange" fill="orange"/><path d="M308.121 104.91v-5.765a7.5 7.5 0 10-15 0v5.765c0 4.145 3.356 7.5 7.5 7.5a7.5 7.5 0 007.5-7.5zM189.34 91.645a7.5 7.5 0 00-7.5 7.5v5.765c0 4.145 3.355 7.5 7.5 7.5a7.5 7.5 0 007.5-7.5v-5.765c0-4.141-3.36-7.5-7.5-7.5zm0 0" stroke="orange" fill="orange"/><path d="M244.98 115.402c-32.996 0-59.835 24.524-59.835 54.668 0 14.86 6.414 27.164 18.55 35.582 10.586 7.344 24.86 11.227 41.285 11.227 16.422 0 30.7-3.883 41.282-11.227 12.136-8.418 18.554-20.722 18.554-35.582 0-30.144-26.843-54.668-59.836-54.668zm16.973 30.32c0 7.352-15.238 7.567-16.973 7.567-1.738 0-16.976-.215-16.976-7.566 0-8.457 10.27-15.32 16.976-15.32 6.704 0 16.973 6.863 16.973 15.32zM244.98 201.88c-33.058 0-44.835-16.434-44.835-31.809 0-10.949 5.039-20.875 13.171-28.058a22.614 22.614 0 00-.312 3.707c0 11.855 9.383 20.082 24.473 22.09v16.586a7.5 7.5 0 1015 0V167.81c15.093-2.008 24.476-10.235 24.476-22.09 0-1.223-.101-2.457-.297-3.696 8.125 7.184 13.156 17.106 13.156 28.043 0 15.38-11.777 31.813-44.832 31.813zm0 0" fill="orange"/></svg>